<svg width="300" height="262" viewBox="0 0 300 262" fill="none" xmlns="http://www.w3.org/2000/svg">
<path d="M127.241 32.4129C122.061 30.6404 117.208 27.739 112.287 25.2358C85.1486 11.427 53.2574 13.5604 29.6404 33.6123C-12.0251 68.987 -7.91394 137.891 30.3988 173.576C77.2961 217.256 153.9 228.189 213.223 206.168C243.876 194.79 270.865 172.153 284.374 142.377C296.681 115.25 296.968 83.0329 285.591 55.5494C275 29.9678 249.858 16.3546 222.946 13.924C210.451 12.7951 198.158 14.1127 185.934 16.7044C168.294 20.4444 151.566 36.4142 132.974 33.8162C131.008 33.5418 129.104 33.0503 127.241 32.4129Z" fill="#FFE3D6"/>
<path d="M35.6493 205.56C38.1394 191.837 36.8252 177.444 31.8921 164.399C29.0661 156.924 24.8056 149.607 18.037 145.359C13.9127 148.937 11.4724 153.997 10.1271 159.288C8.45348 165.87 7.71171 172.756 8.66087 179.481C9.61003 186.206 12.3248 192.772 16.9365 197.758C21.5488 202.743 28.858 205.554 35.6493 205.56Z" fill="#01BCA7"/>
<path d="M36.0566 204.764C33.8113 193.006 30.7882 181.396 27.0192 170.035C24.9024 163.655 22.5451 157.355 19.9603 151.149C19.6983 150.521 18.7298 150.946 18.9918 151.576C23.5903 162.616 27.4623 173.956 30.5601 185.508C33.6481 197.026 35.9785 208.747 37.5277 220.57C38.4015 227.236 39.0237 233.934 39.3997 240.646C39.4378 241.325 40.483 241.158 40.4457 240.482C39.7737 228.495 38.3089 216.556 36.0566 204.764Z" fill="#154340"/>
<path d="M45.0966 206.8C42.3687 194.483 43.8364 181.276 49.2016 169.858C54.5668 158.441 63.7971 148.882 75.0204 143.121C79.4779 151.48 82.5563 161.217 81.9721 170.671C81.3873 180.126 77.704 189.466 71.2051 196.358C64.7061 203.25 54.5675 207.009 45.0966 206.8Z" fill="#26645F"/>
<path d="M72.0388 147.433C64.1358 157.796 57.6224 169.209 52.6692 181.262C47.7444 193.244 44.3473 205.863 42.6149 218.702C41.6339 225.971 41.195 233.308 41.3035 240.641C41.3139 241.312 42.3646 241.441 42.355 240.761C42.1635 227.849 43.6857 214.928 46.8208 202.403C49.9621 189.854 54.7334 177.703 60.9648 166.367C64.4753 159.98 68.4676 153.861 72.8864 148.067C73.3005 147.525 72.4522 146.892 72.0388 147.433Z" fill="#154340"/>
<path d="M39.4846 203.671C39.4846 203.671 27.608 192.765 27.1635 171.087C26.9789 162.106 28.4569 152.594 32.9296 144.674C33.5698 143.541 34.2735 142.442 35.0402 141.389C35.5103 140.744 40.9612 134.337 41.4278 134.801C50.4846 143.803 55.2352 156.733 55.0686 169.5C54.9027 182.268 48.7736 194.909 39.4846 203.671Z" fill="#C08B89"/>
<path d="M39.8135 201.389C39.8274 188.238 40.0154 175.088 40.3769 161.942C40.5802 154.561 40.8387 147.182 41.1505 139.806C41.1789 139.129 40.1281 139.004 40.099 139.686C39.5418 152.868 39.1568 166.058 38.948 179.251C38.7392 192.443 38.7054 205.638 38.8464 218.832C38.9252 226.218 39.06 233.605 39.2474 240.989C39.2646 241.668 40.3099 241.499 40.2933 240.826C39.9594 227.683 39.7997 214.536 39.8135 201.389Z" fill="#154340"/>
<path d="M258.216 220.413C257.344 217.885 254.999 216.143 252.56 215.047C250.122 213.951 247.482 213.339 245.079 212.167C242.676 210.995 240.424 209.082 239.792 206.484C239.045 203.415 240.699 200.338 242.134 197.524C243.57 194.71 244.839 191.312 243.397 188.502C241.87 185.526 238.07 184.652 235.53 182.478C232.282 179.695 231.448 174.485 233.667 170.827C234.701 169.122 236.259 167.807 237.515 166.259C238.771 164.71 239.758 162.716 239.318 160.771C241.196 163.14 243.861 164.487 246.8 165.195C249.74 165.903 252.803 166.321 255.481 167.725C258.158 169.129 260.435 171.843 260.226 174.859C260.079 176.97 258.782 178.794 257.868 180.703C256.955 182.612 256.471 185.067 257.804 186.712C259.031 188.226 261.223 188.39 263.08 188.988C267.341 190.359 270.392 194.817 270.127 199.286C269.875 203.524 267.066 207.12 264.333 210.369C261.602 213.617 258.718 216.197 258.216 220.413Z" fill="#C08B89"/>
<path d="M256.253 206.815C254.731 197.477 252.561 188.226 249.25 179.351C247.423 174.453 245.239 169.691 242.648 165.149C242.311 164.559 241.368 165.04 241.707 165.634C246.306 173.697 249.586 182.432 251.945 191.393C254.43 200.831 255.905 210.5 257.001 220.187C257.638 225.822 258.148 231.47 258.659 237.118C258.719 237.794 259.753 237.563 259.692 236.891C258.786 226.841 257.877 216.779 256.253 206.815Z" fill="#154340"/>
<path d="M265.823 218.775C268.73 212.703 273.71 207.645 279.736 204.643C282.35 203.342 285.138 202.422 287.787 201.193C290.437 199.965 293.005 198.374 294.764 196.043C296.522 193.711 297.35 190.525 296.314 187.794C295.281 185.07 292.517 182.863 292.773 179.96C293.122 176.009 298.662 174.489 299.8 170.689C300.452 168.509 299.429 166.142 297.947 164.415C296.465 162.688 294.548 161.395 292.932 159.794C291.315 158.193 289.946 156.183 290.055 153.91C289.167 156.312 286.493 157.56 283.97 157.994C281.446 158.428 278.811 158.307 276.389 159.139C272.107 160.61 269.16 165.263 269.663 169.764C269.881 171.716 270.663 173.556 271.133 175.463C271.603 177.37 271.728 179.504 270.719 181.189C269.171 183.775 265.723 184.291 263.083 185.745C258.494 188.272 256.331 194.46 258.348 199.296C259.193 201.321 262.061 203.574 263.119 205.496C266.783 212.145 266.647 215.475 265.823 218.775Z" fill="#FFE3D6"/>
<path d="M284.557 167.14C279.907 175.625 275.878 184.448 272.524 193.525C269.159 202.633 266.47 211.991 264.489 221.497C263.373 226.852 262.48 232.251 261.812 237.679C261.73 238.356 262.787 238.409 262.869 237.735C264.044 228.183 265.925 218.724 268.497 209.449C271.059 200.209 274.298 191.157 278.183 182.39C280.393 177.4 282.818 172.508 285.441 167.722C285.767 167.127 284.885 166.542 284.557 167.14Z" fill="#154340"/>
<path d="M268.027 132.412C268.484 134.736 265.861 138.401 263.904 139.735C261.947 141.069 259.618 141.725 257.491 142.769C255.365 143.813 253.303 145.449 252.762 147.754C251.836 151.698 255.629 155.162 256.313 159.155C256.836 162.213 255.452 165.315 253.529 167.749C251.605 170.182 249.15 172.137 247.029 174.401C244.908 176.665 243.061 179.404 242.807 182.496C242.477 186.511 244.901 190.272 247.83 193.036C250.759 195.801 254.263 197.916 257.098 200.776C259.933 203.637 262.116 207.609 261.387 211.57C262.292 207.743 265.716 204.73 268.846 202.35C271.977 199.971 275.474 198.078 278.433 195.489C281.393 192.9 283.854 189.379 283.955 185.447C284.134 178.482 277.098 173.002 276.909 166.037C276.815 162.562 278.458 159.314 279.795 156.105C281.133 152.896 282.198 149.248 280.957 146C278.67 140.013 270.223 138.434 268.027 132.412Z" fill="#26645F"/>
<path d="M266.757 154.391C265.709 165.216 264.661 176.041 263.613 186.865C262.569 197.651 261.523 208.436 260.534 219.227C259.974 225.324 259.435 231.422 258.922 237.524C258.864 238.203 259.921 238.258 259.979 237.58C260.89 226.738 261.889 215.904 262.921 205.073C263.949 194.288 265.001 183.506 266.045 172.723C266.634 166.631 267.224 160.539 267.814 154.448C267.879 153.768 266.822 153.714 266.757 154.391Z" fill="#154340"/>
<path d="M84.2215 259.529L84.2567 259.763C84.2927 260.112 84.3348 260.445 84.3991 260.808C84.4703 261.106 84.527 261.433 84.5913 261.767L120.435 261.758C120.435 261.758 120.491 261.389 120.491 260.806C120.477 260.508 120.455 260.16 120.392 259.755C120.377 259.684 120.37 259.599 120.342 259.52C119.951 257.503 118.48 254.718 113.584 253.824C113.35 253.767 113.101 253.739 112.831 253.704H112.81C112.426 253.647 112.042 253.611 111.63 253.576C111.495 253.569 111.361 253.555 111.225 253.548C101.42 252.782 97.0783 249.494 97.0783 249.494C97.0783 249.494 91.3951 250.632 86.0659 249.497C86.0659 249.497 85.4409 250.534 84.8872 252.339C84.8022 252.644 84.7095 252.971 84.6245 253.319C84.6031 253.383 84.5892 253.454 84.5678 253.532C84.5326 253.667 84.5042 253.823 84.4752 253.98C84.4683 254.023 84.4537 254.08 84.4537 254.123C84.4537 254.158 84.4323 254.173 84.4323 254.201C84.2906 254.94 84.1841 255.75 84.1413 256.623C84.1005 257.532 84.1074 258.506 84.2215 259.529Z" fill="#C08B89"/>
<path d="M100.637 249.784C100.515 249.672 100.354 249.589 100.184 249.597C100.004 249.605 99.8719 249.673 99.7315 249.784C99.6327 249.862 99.5338 249.94 99.435 250.017C98.9621 250.381 98.4817 250.735 97.9929 251.078C97.8539 251.175 97.7447 251.293 97.6984 251.461C97.6562 251.614 97.6756 251.818 97.7634 251.954C97.939 252.227 98.3462 252.39 98.64 252.184C99.3216 251.707 99.9866 251.207 100.638 250.69C100.757 250.594 100.825 250.382 100.825 250.237C100.824 250.08 100.755 249.892 100.637 249.784Z" fill="white"/>
<path d="M103.174 250.924C102.934 250.704 102.501 250.653 102.268 250.924C101.799 251.47 101.276 251.966 100.709 252.408C100.618 252.477 100.527 252.545 100.434 252.611C100.295 252.709 100.186 252.825 100.139 252.994C100.097 253.147 100.116 253.351 100.204 253.487C100.378 253.758 100.788 253.924 101.08 253.717C101.85 253.172 102.558 252.546 103.173 251.83C103.285 251.699 103.361 251.554 103.361 251.377C103.362 251.221 103.292 251.033 103.174 250.924Z" fill="white"/>
<path d="M105.507 251.752C105.385 251.64 105.224 251.556 105.054 251.564C104.897 251.571 104.702 251.621 104.602 251.752L103.149 253.62C103.04 253.761 102.962 253.888 102.962 254.073C102.962 254.23 103.032 254.418 103.15 254.526C103.271 254.638 103.432 254.721 103.603 254.713C103.76 254.706 103.954 254.656 104.055 254.525L105.508 252.657C105.617 252.516 105.695 252.389 105.695 252.204C105.695 252.048 105.625 251.86 105.507 251.752Z" fill="white"/>
<path d="M108.094 252.355C107.786 252.192 107.395 252.276 107.216 252.589C106.899 253.133 106.584 253.671 106.268 254.215C106.071 254.504 106.16 254.956 106.477 255.124C106.786 255.287 107.177 255.203 107.357 254.889C107.673 254.346 107.988 253.808 108.304 253.264C108.5 252.975 108.411 252.522 108.094 252.355Z" fill="white"/>
<path d="M84.2524 259.768C84.2939 260.106 84.3354 260.451 84.4045 260.803C84.4667 261.113 84.522 261.437 84.5981 261.769L120.433 261.76C120.433 261.76 120.495 261.395 120.495 260.808C120.482 260.505 120.461 260.153 120.392 259.76L84.2524 259.768Z" fill="#FFE3D6"/>
<path d="M67.084 259.529L67.0487 259.763C67.0128 260.112 66.9706 260.445 66.9063 260.808C66.8351 261.106 66.7784 261.433 66.7141 261.767L30.8708 261.758C30.8708 261.758 30.8141 261.389 30.8141 260.806C30.8286 260.508 30.85 260.16 30.9136 259.755C30.9282 259.684 30.9351 259.599 30.9634 259.52C31.3547 257.503 32.8258 254.718 37.7216 253.824C37.9559 253.767 38.2048 253.739 38.4744 253.704H38.4958C38.8795 253.647 39.2632 253.611 39.6752 253.576C39.81 253.569 39.9448 253.555 40.0803 253.548C49.8851 252.782 54.2271 249.494 54.2271 249.494C54.2271 249.494 59.9103 250.632 65.2396 249.497C65.2396 249.497 65.8645 250.534 66.4183 252.339C66.5033 252.644 66.5959 252.971 66.681 253.319C66.7024 253.383 66.7162 253.454 66.7376 253.532C66.7729 253.667 66.8012 253.823 66.8303 253.98C66.8372 254.023 66.8517 254.08 66.8517 254.123C66.8517 254.158 66.8731 254.173 66.8731 254.201C67.0149 254.94 67.1213 255.75 67.1642 256.623C67.2057 257.532 67.1981 258.506 67.084 259.529Z" fill="#C08B89"/>
<path d="M50.6692 249.784C50.7915 249.672 50.9519 249.589 51.122 249.597C51.3024 249.605 51.4344 249.673 51.5748 249.784C51.6736 249.862 51.7725 249.94 51.8713 250.017C52.3442 250.381 52.8246 250.735 53.3134 251.078C53.4523 251.175 53.5616 251.293 53.6079 251.461C53.6501 251.614 53.6314 251.818 53.5436 251.954C53.368 252.227 52.9608 252.39 52.667 252.184C51.9854 251.707 51.3204 251.207 50.6692 250.69C50.5496 250.594 50.4818 250.382 50.4818 250.237C50.4818 250.08 50.5509 249.892 50.6692 249.784Z" fill="white"/>
<path d="M48.1312 250.924C48.3711 250.704 48.8039 250.653 49.0375 250.924C49.5062 251.47 50.0296 251.966 50.5964 252.408C50.6877 252.477 50.7782 252.545 50.8716 252.611C51.0105 252.709 51.1191 252.825 51.1661 252.994C51.2082 253.147 51.1896 253.351 51.1018 253.487C50.9269 253.758 50.5176 253.924 50.2252 253.717C49.4551 253.172 48.7472 252.546 48.1319 251.83C48.0199 251.699 47.9439 251.554 47.9446 251.377C47.9439 251.221 48.0137 251.033 48.1312 250.924Z" fill="white"/>
<path d="M45.7989 251.752C45.9212 251.64 46.0816 251.556 46.2517 251.564C46.4093 251.571 46.6036 251.621 46.7045 251.752L48.1569 253.62C48.2661 253.761 48.3443 253.888 48.3443 254.073C48.3443 254.23 48.2744 254.418 48.1562 254.526C48.0345 254.638 47.8742 254.721 47.7034 254.713C47.5458 254.706 47.3522 254.656 47.2506 254.525L45.7982 252.657C45.689 252.516 45.6108 252.389 45.6108 252.204C45.6115 252.048 45.6814 251.86 45.7989 251.752Z" fill="white"/>
<path d="M43.212 252.355C43.5203 252.192 43.9116 252.276 44.0906 252.589C44.4073 253.133 44.7218 253.671 45.0384 254.215C45.2348 254.504 45.1463 254.956 44.829 255.124C44.5206 255.287 44.1294 255.203 43.9496 254.889C43.6323 254.346 43.3185 253.808 43.0018 253.264C42.8062 252.975 42.8947 252.522 43.212 252.355Z" fill="white"/>
<path d="M67.0537 259.768C67.0123 260.106 66.9708 260.451 66.9016 260.803C66.8394 261.113 66.7841 261.437 66.7081 261.769L30.873 261.76C30.873 261.76 30.8108 261.395 30.8108 260.808C30.8246 260.505 30.8454 260.153 30.9145 259.76L67.0537 259.768Z" fill="#FFE3D6"/>
<path d="M73.1993 116.914L86.07 249.495C91.3799 251.443 97.0783 249.495 97.0783 249.495C97.0783 249.495 104.474 143.065 97.5242 116.65L73.1993 116.914Z" fill="#FFC6C6"/>
<path d="M54.2238 249.495C54.2238 249.495 60.1372 250.907 65.2404 249.495C65.4962 247.711 78.7899 116.84 78.7899 116.84L55.6894 116.658C49.9827 151.946 54.2238 249.495 54.2238 249.495Z" fill="#FFC6C6"/>
<path d="M97.5242 116.65L55.6893 116.658C48.9553 145.691 51.6673 242.939 51.6673 242.939C51.6673 242.939 58.7594 244.824 67.9164 242.939L76.1291 148.721L84.1185 243.298C84.1185 243.298 90.5953 244.599 98.7651 243.298C98.7651 243.298 104.839 140.912 97.5242 116.65Z" fill="#538E80"/>
<path d="M76.0288 144.192C75.7944 141.274 75.5608 138.356 75.3264 135.438L74.9317 130.519C74.9296 130.492 74.9186 130.469 74.9047 130.451C74.8992 130.441 74.8923 130.433 74.884 130.426C74.8826 130.424 74.8812 130.424 74.8798 130.423C74.8702 130.415 74.8598 130.409 74.8467 130.405C74.8128 130.392 74.7755 130.39 74.743 130.401C72.7375 130.523 70.8454 129.294 70.1845 127.387C70.0034 126.866 69.9191 126.32 69.9329 125.768C69.937 125.598 69.6736 125.598 69.6695 125.768C69.6432 126.801 69.9571 127.836 70.555 128.678C71.1586 129.528 72.0331 130.151 73.0271 130.46C73.5608 130.626 74.1229 130.693 74.6807 130.666C74.9109 133.536 75.1411 136.406 75.3714 139.275C75.6057 142.193 75.8394 145.112 76.0737 148.03C76.2051 149.67 76.3371 151.309 76.4685 152.949C76.4823 153.116 76.7457 153.118 76.7325 152.949C76.4968 150.029 76.2624 147.111 76.0288 144.192Z" fill="#FFE3D6"/>
<path d="M59.1708 21.4012C58.9081 22.0261 58.6924 22.6766 58.5265 23.3479C56.4505 31.7769 62.3874 40.7667 58.2306 48.8625C56.7741 51.6996 54.2377 54.151 54.537 57.5501C54.8108 60.6596 56.6759 63.5451 59.1438 65.3902C62.3778 67.8083 66.5042 68.7119 70.5317 69.0112C76.2412 69.4357 82.2161 68.6994 87.1084 65.7254C92.0008 62.7508 95.5817 57.2293 95.1414 51.5212C94.8261 47.4301 92.6167 43.8851 91.3281 40.0747C89.8944 35.8356 90.7682 31.3587 90.0741 27.0139C89.2266 21.7102 85.7175 16.7584 80.7975 14.5027C77.0887 12.8021 72.3636 12.5311 68.4294 13.521C64.2574 14.5718 60.8106 17.4946 59.1708 21.4012Z" fill="#421F09"/>
<path d="M63.8405 54.5339C57.6741 56.9265 52.8039 82.4674 52.8039 82.4674L31.3051 62.9416L25.288 67.7219C25.288 67.7219 40.5499 86.3055 45.5991 92.0281C50.6491 97.7514 60.6142 98.6266 64.1827 89.4696C67.7513 80.3126 63.8405 54.5339 63.8405 54.5339Z" fill="#FFC6C6"/>
<path d="M31.744 65.0148C31.2469 63.7421 35.1452 57.0033 33.7902 56.05C32.5507 55.1782 30.2397 57.5936 30.1021 59.3094C29.1765 57.351 27.8623 48.6972 26.1119 49.2116C24.8164 49.5918 26.5371 55.9843 26.5371 55.9843C26.5371 55.9843 23.7338 48.7892 22.1507 49.5752C20.5677 50.3612 24.3055 57.324 24.3055 57.324C24.3055 57.324 20.7861 51.6062 19.6316 52.4448C18.4958 53.2688 22.6305 58.8981 22.6305 58.8981C22.6305 58.8981 18.7157 54.9549 18.1045 55.4686C17.4927 55.9822 19.3199 58.9403 21.3578 60.7667C22.0581 65.4531 25.5049 67.9106 25.5049 67.9106L31.744 65.0148Z" fill="#FFC6C6"/>
<path d="M63.8405 54.5339C57.1148 57.6448 53.4343 73.7141 53.4343 73.7141C53.4343 73.7141 59.8904 77.3055 65.6849 77.4845L63.8405 54.5339Z" fill="#538E80"/>
<path d="M98.2855 117.175C71.0502 123.265 54.8827 116.655 54.8827 116.655C55.9162 113.477 61.9886 84.3173 61.9886 84.3173C55.8851 82.24 55.2 71.6098 61.9679 65.1966L63.8406 54.5339L70.82 52.0376L79.9639 51.9747L89.2114 54.9563L90.1564 99.9401L98.2855 117.175Z" fill="#538E80"/>
<path d="M81.513 120.828C78.2646 120.925 75.0113 120.806 71.7781 120.473C68.5469 120.14 65.3386 119.592 62.18 118.834C60.402 118.408 58.6405 117.914 56.8991 117.356C56.7374 117.304 56.6676 117.559 56.8293 117.61C59.934 118.605 63.1036 119.393 66.3133 119.968C69.5134 120.54 72.7507 120.903 75.9985 121.05C77.836 121.133 79.6755 121.146 81.5137 121.091C81.6824 121.086 81.683 120.823 81.513 120.828Z" fill="#FFE3D6"/>
<path d="M64.9065 84.5137C61.8094 84.5358 59.0442 82.3368 57.9001 79.5377C56.5866 76.3245 57.1791 72.6682 58.7552 69.6652C59.6207 68.0157 60.7621 66.528 62.0355 65.1738C62.059 65.1641 62.0769 65.1441 62.0894 65.1157C62.0998 65.1047 62.1101 65.0929 62.1212 65.0818C62.1717 65.0286 62.1641 64.965 62.1316 64.9187C62.5484 62.6415 62.9653 60.3644 63.3821 58.0872C63.4125 57.9213 63.1581 57.8501 63.1277 58.0174C62.7026 60.3395 62.2774 62.6623 61.8523 64.9844C59.4991 67.4862 57.5351 70.5321 57.0401 73.9879C56.7926 75.7162 56.8998 77.5108 57.4784 79.1658C58.0072 80.6783 58.9301 82.0298 60.1786 83.0391C61.5135 84.1189 63.1775 84.7902 64.9065 84.7778C65.0758 84.7757 65.0765 84.5123 64.9065 84.5137Z" fill="#FFE3D6"/>
<path d="M84.713 80.97C83.5606 82.6492 81.6499 83.7656 79.6209 83.944C79.4529 83.9585 79.4515 84.2226 79.6209 84.2074C81.7487 84.02 83.7314 82.8642 84.9405 81.1027C85.0373 80.9631 84.8084 80.8311 84.713 80.97Z" fill="#FFE3D6"/>
<path d="M69.3191 52.5741L67.4028 56.9825L75.6058 63.4801L83.6858 56.8816L81.8234 52.5741H69.3191Z" fill="#26645F"/>
<path d="M81.8235 52.5741L75.6059 63.4801L69.3192 52.5741L70.82 52.0376L79.9639 51.9747L81.8235 52.5741Z" fill="#FFC6C6"/>
<path d="M89.2114 54.9563C100.003 59.5742 109.921 73.8565 112.886 78.2027C116.836 83.9931 116.432 89.1101 111.778 92.4982C109.872 93.885 86.0425 108.691 86.0425 108.691L81.8235 101.387L104.043 84.8012L89.5315 70.2154L89.2114 54.9563Z" fill="#FFC6C6"/>
<path d="M89.2113 54.9563C99.1744 58.4972 107.321 69.3375 107.321 69.3375C107.321 69.3375 102.339 75.8012 96.8848 79.3026L88.4011 70.6171L89.2113 54.9563Z" fill="#538E80"/>
<path d="M90.4578 72.3633C89.1222 70.886 87.7866 69.4094 86.451 67.9321C86.3369 67.8063 86.1579 67.9998 86.2713 68.125C86.5858 68.4734 86.901 68.8211 87.2156 69.1695C86.8948 69.0161 86.5616 68.8882 86.2194 68.7907C86.0556 68.7444 85.9954 69.0008 86.1586 69.0472C86.6432 69.1847 87.1063 69.3838 87.5419 69.6375C87.5799 69.6597 87.6165 69.6597 87.6476 69.6472C88.5249 70.6171 89.4015 71.587 90.2787 72.5569C90.3921 72.682 90.5712 72.4885 90.4578 72.3633Z" fill="#FFE3D6"/>
<path d="M83.9493 100.739C83.0914 100.564 82.4492 101.493 81.0237 101.33C79.5982 101.167 77.5948 99.7078 76.4867 99.8799C75.3792 100.052 67.7832 103.26 68.621 104.893C69.1195 105.864 73.2286 103.887 73.3343 103.946C73.4394 104.005 68.5685 107.034 69.3987 108.294C70.2297 109.556 75.3585 105.355 75.4808 105.462C75.6025 105.568 71.8798 109.153 72.9133 110.131C73.9468 111.11 77.2049 107.269 77.3494 107.318C77.4939 107.367 75.6599 111.174 76.5102 111.707C77.3605 112.24 79.8036 107.683 80.0206 107.756C80.237 107.829 81.8588 109.382 83.6009 109.548C85.343 109.715 88.2644 107.307 88.1545 105.951C88.0446 104.596 85.0651 100.967 83.9493 100.739Z" fill="#FFC6C6"/>
<path d="M60.8768 35.3655C60.8802 35.4291 60.8892 35.4927 60.8934 35.5556C60.9024 35.6309 60.9058 35.6938 60.9141 35.7692C61.2971 39.3349 62.5767 41.5934 64.361 43.2788C65.3163 44.1872 66.206 44.8571 66.9886 45.4543C67.2402 45.6472 67.4753 45.8283 67.7041 46.0088C67.8831 46.1477 68.0504 46.2915 68.2226 46.4415C69.9681 47.9244 70.9491 49.5517 70.7002 54.209C72.0704 58.2697 78.1075 59.149 80.3072 54.7289C80.5457 49.0885 81.8751 44.2805 82.9867 41.1945C83.2688 40.3885 83.5405 39.7034 83.7727 39.1538C84.2131 38.1009 84.5214 37.5258 84.5214 37.5258C84.5214 37.5258 84.9238 25.121 83.3172 21.7357C79.4002 13.5659 64.0105 15.4573 62.4855 21.7178C61.022 27.6989 60.5878 32.0735 60.8768 35.3655Z" fill="#FFC6C6"/>
<path d="M60.6438 28.7552C62.2352 25.5822 64.6264 22.8142 67.5347 20.779C70.1693 24.2279 73.8747 26.8023 78.0778 27.8849C78.5631 31.2737 80.8513 34.4066 84.0382 35.6572C85.1374 35.5895 86.1011 34.5981 86.5069 33.5743C86.9127 32.5505 86.9175 31.4188 86.9134 30.3176C86.9071 28.4932 86.8905 26.6475 86.4384 24.8798C85.6697 21.8747 83.6359 19.2561 81.0304 17.572C78.4248 15.8887 75.2829 15.1131 72.1817 15.1587C70.0006 15.1905 67.8023 15.6253 65.8666 16.6312C63.931 17.637 62.2719 19.2381 61.3932 21.2346C60.3424 23.6209 60.5042 26.1525 60.6438 28.7552Z" fill="#421F09"/>
<path d="M87.8432 37.989C86.4523 39.4773 84.3666 39.7891 83.1852 38.6851C82.0038 37.5811 82.1738 35.4795 83.564 33.9905C84.9549 32.5014 87.0406 32.1896 88.222 33.2943C89.4035 34.3983 89.2341 36.4999 87.8432 37.989Z" fill="#FFC6C6"/>
<path d="M87.3275 34.0112C86.7876 33.6877 86.0459 33.6614 85.3442 33.9435C84.9944 34.0831 84.7365 34.2629 84.5547 34.4917C84.3141 34.7952 84.2312 35.1878 84.3376 35.5162C84.4323 35.8107 84.6529 36.0112 84.8471 36.1875C84.9882 36.3153 85.1209 36.4356 85.1928 36.5753C85.302 36.7896 85.2564 37.0785 85.0849 37.2479C84.9142 37.4166 84.6245 37.4588 84.4116 37.3461C84.2858 37.2797 84.1323 37.3281 84.0653 37.4525C83.9996 37.577 84.0466 37.7325 84.1717 37.7982C84.3086 37.8708 84.4593 37.9095 84.6114 37.9178C84.9149 37.9337 85.2253 37.8272 85.4437 37.6109C85.7721 37.2859 85.8571 36.7522 85.6463 36.3409C85.5329 36.119 85.3504 35.9538 85.1893 35.8079C85.0283 35.6614 84.8762 35.5231 84.8229 35.3579C84.769 35.192 84.8209 34.977 84.9543 34.8083C85.0082 34.7406 85.0801 34.6804 85.1582 34.623C85.4119 34.6341 85.7258 34.7295 85.8765 34.9134C86.0466 35.1215 86.1164 35.4125 86.059 35.6738C86.0286 35.8121 86.1157 35.9483 86.2539 35.9787C86.2678 35.9821 86.2816 35.9835 86.2954 35.9842C86.4178 35.9911 86.5311 35.9075 86.5581 35.7837C86.6507 35.3669 86.5436 34.9203 86.2719 34.5892C86.171 34.4661 86.041 34.3797 85.9034 34.3078C86.332 34.2166 86.7482 34.2615 87.0621 34.4495C87.4506 34.6818 87.723 35.2431 87.4934 35.6766C87.4278 35.8017 87.4755 35.9559 87.5999 36.0222C87.725 36.0879 87.8792 36.0402 87.9456 35.9158C88.2822 35.2853 87.9974 34.4136 87.3275 34.0112Z" fill="#C16B5B"/>
<path d="M67.9054 34.3894C67.6855 34.2774 67.4519 34.2103 67.2058 34.1951C66.9859 34.182 66.7433 34.2103 66.5608 34.343C66.3644 34.4855 66.2663 34.706 66.2469 34.9431C66.2283 35.1698 66.3022 35.3938 66.3866 35.6012C66.4315 35.7125 66.5387 35.8058 66.6679 35.7657C66.7744 35.7326 66.8809 35.604 66.8325 35.4844C66.7709 35.333 66.7032 35.1685 66.7053 35.0025C66.706 34.9175 66.7288 34.8304 66.7792 34.762C66.7765 34.7661 66.7737 34.771 66.7709 34.7751C66.8179 34.7018 66.9078 34.6749 66.988 34.661C66.9942 34.6597 67.0004 34.659 67.0094 34.6576C67.0267 34.6569 67.044 34.6548 67.0613 34.6541C67.1069 34.6521 67.1532 34.6527 67.1995 34.6555C67.223 34.6569 67.2466 34.659 67.2701 34.6617C67.2825 34.6631 67.2839 34.6624 67.2873 34.6631C67.2915 34.6638 67.2915 34.6645 67.3019 34.6659C67.4456 34.6922 67.5673 34.7502 67.7028 34.7986C67.8051 34.8353 67.9303 34.8048 67.9842 34.7053C68.0409 34.6023 68.0201 34.4481 67.9054 34.3894Z" fill="#C16B5B"/>
<path d="M62.8145 28.6011C64.0243 27.9471 65.4919 27.8849 66.7259 28.5236C67.028 28.6799 67.1953 29.0808 67.0245 29.394C66.8026 29.8012 66.4051 29.8005 66.0318 29.6318C65.6993 29.4811 65.3405 29.3885 64.9762 29.3594C64.9776 29.3394 65.0087 29.374 64.9887 29.3733C64.522 29.3477 64.0609 29.4424 63.6358 29.6332C63.6109 29.6443 63.5853 29.6567 63.5452 29.6754C63.2473 29.833 62.8463 29.8226 62.6472 29.506C62.4772 29.2343 62.4951 28.7739 62.8145 28.6011Z" fill="black"/>
<path d="M70.6602 28.6564C71.9419 28.1565 73.4061 28.2768 74.5515 29.0635C74.8322 29.2564 74.9484 29.674 74.7403 29.9643C74.5384 30.245 74.1395 30.359 73.8395 30.153C73.7241 30.0735 73.6045 30.0051 73.4828 29.9366C73.4703 29.9304 73.4731 29.9318 73.4655 29.9277C73.4434 29.918 73.4213 29.9076 73.3991 29.8979C73.3514 29.8772 73.3031 29.8578 73.254 29.8399C73.124 29.7908 72.9906 29.75 72.8558 29.7168C72.8219 29.7085 72.6048 29.6428 72.7721 29.6961C72.7168 29.6788 72.6491 29.6774 72.591 29.6705C72.4617 29.6553 72.3311 29.6477 72.2004 29.647C72.1306 29.6463 72.0615 29.6505 71.9917 29.6518C71.984 29.6518 71.9813 29.6518 71.9764 29.6518C71.9661 29.6532 71.9522 29.6553 71.9322 29.6574C71.8029 29.6733 71.6743 29.6961 71.5478 29.7265C71.4801 29.7431 71.413 29.7611 71.3467 29.7818C71.3204 29.7901 71.2941 29.7984 71.2679 29.8074C71.263 29.8094 71.2651 29.8081 71.2596 29.8108C71.2575 29.8115 71.2554 29.8115 71.254 29.8122C71.252 29.8129 71.2499 29.8136 71.2478 29.8143C71.2506 29.8136 71.2492 29.8136 71.252 29.8129C70.9367 29.9325 70.5399 29.8724 70.3823 29.5336C70.2468 29.2419 70.3215 28.7877 70.6602 28.6564Z" fill="black"/>
<path d="M70.244 37.5438C69.4158 38.1742 68.3651 38.4646 67.3309 38.3692C67.0447 38.3429 67.0205 38.7881 67.306 38.8144C68.4611 38.9208 69.6205 38.5773 70.542 37.8763C70.7701 37.7021 70.4715 37.3709 70.244 37.5438Z" fill="#8E4136"/>
<path d="M73.1981 33.069C73.2175 33.6497 72.7626 34.1363 72.1812 34.1557C71.5998 34.1751 71.1138 33.7195 71.0945 33.1388C71.0751 32.5581 71.53 32.0714 72.1114 32.0521C72.6921 32.0334 73.1787 32.4883 73.1981 33.069Z" fill="black"/>
<path d="M72.0732 32.7703C72.0787 32.9397 71.946 33.0814 71.7766 33.0869C71.6072 33.0925 71.4655 32.9597 71.46 32.7904C71.4545 32.621 71.5872 32.4793 71.7566 32.4737C71.9259 32.4682 72.0677 32.6009 72.0732 32.7703Z" fill="white"/>
<path d="M65.5205 32.8574C65.5398 33.4381 65.0843 33.9248 64.5036 33.9441C63.9229 33.9635 63.4362 33.5086 63.4169 32.9272C63.3975 32.3465 63.8531 31.8599 64.4338 31.8405C65.0145 31.8211 65.5011 32.2767 65.5205 32.8574Z" fill="black"/>
<path d="M64.3957 32.5581C64.4012 32.7275 64.2685 32.8692 64.0991 32.8747C63.9298 32.8802 63.788 32.7475 63.7825 32.5781C63.777 32.4088 63.9097 32.267 64.0791 32.2615C64.2478 32.256 64.3895 32.3887 64.3957 32.5581Z" fill="white"/>
<path d="M119.296 259.303L119.264 259.529C119.234 259.867 119.196 260.19 119.138 260.542C119.072 260.831 119.021 261.148 118.962 261.471L84.2914 261.845C84.2914 261.845 84.2327 261.489 84.2264 260.925C84.2375 260.636 84.2541 260.3 84.3115 259.907C84.3246 259.838 84.3301 259.756 84.3571 259.68C84.7138 257.724 86.1075 255.015 90.8332 254.097C91.0593 254.04 91.2999 254.009 91.5605 253.973H91.5812C91.9518 253.914 92.3223 253.875 92.7205 253.837C92.8511 253.828 92.9818 253.813 93.1118 253.805C102.587 252.96 106.753 249.733 106.753 249.733C106.753 249.733 112.262 250.773 117.405 249.618C117.405 249.618 118.02 250.615 118.575 252.355C118.661 252.65 118.754 252.965 118.84 253.301C118.861 253.362 118.876 253.431 118.897 253.506C118.933 253.636 118.962 253.787 118.991 253.938C118.999 253.98 119.013 254.034 119.014 254.076C119.014 254.11 119.035 254.123 119.035 254.151C119.18 254.865 119.291 255.646 119.342 256.492C119.392 257.371 119.396 258.312 119.296 259.303Z" fill="#154340"/>
<path d="M103.314 250.052C103.431 249.942 103.585 249.86 103.75 249.865C103.925 249.871 104.054 249.936 104.191 250.042C104.287 250.117 104.384 250.19 104.48 250.264C104.941 250.612 105.41 250.949 105.886 251.275C106.022 251.367 106.128 251.479 106.175 251.642C106.218 251.79 106.202 251.987 106.118 252.12C105.951 252.385 105.559 252.547 105.273 252.352C104.608 251.897 103.96 251.421 103.324 250.928C103.208 250.838 103.14 250.633 103.139 250.492C103.136 250.339 103.201 250.157 103.314 250.052Z" fill="white"/>
<path d="M100.872 251.182C101.101 250.966 101.52 250.912 101.748 251.172C102.207 251.696 102.719 252.169 103.273 252.592C103.361 252.657 103.45 252.722 103.541 252.784C103.676 252.878 103.783 252.988 103.83 253.152C103.872 253.299 103.856 253.497 103.772 253.63C103.607 253.894 103.213 254.059 102.927 253.862C102.176 253.342 101.485 252.744 100.882 252.058C100.772 251.933 100.698 251.793 100.695 251.622C100.693 251.47 100.759 251.288 100.872 251.182Z" fill="white"/>
<path d="M98.6244 252.007C98.7412 251.897 98.8954 251.815 99.0606 251.821C99.2127 251.826 99.4014 251.873 99.5003 251.998L100.926 253.79C101.033 253.924 101.11 254.046 101.112 254.226C101.114 254.378 101.048 254.56 100.935 254.665C100.818 254.775 100.664 254.858 100.499 254.852C100.346 254.847 100.158 254.8 100.058 254.675L98.6334 252.883C98.5262 252.748 98.4488 252.627 98.4474 252.447C98.446 252.295 98.5117 252.112 98.6244 252.007Z" fill="white"/>
<path d="M96.128 252.618C96.4246 252.457 96.8034 252.534 96.9804 252.835C97.2929 253.357 97.6026 253.875 97.915 254.397C98.1079 254.675 98.0277 255.113 97.7222 255.279C97.4256 255.44 97.0468 255.362 96.8698 255.062C96.5573 254.54 96.2476 254.022 95.9351 253.499C95.7423 253.221 95.8231 252.784 96.128 252.618Z" fill="white"/>
<path d="M106.651 245.782C106.709 248.318 106.75 249.73 106.75 249.73C106.75 249.73 111.3 251.81 117.403 249.622C117.403 249.622 117.585 248.193 117.915 245.634C120.36 226.573 130.806 144.757 133.226 122.658H106.254C104.454 150.785 106.197 227.506 106.651 245.782Z" fill="#EBBDA4"/>
<path d="M138.617 259.303L138.649 259.529C138.68 259.867 138.717 260.19 138.775 260.542C138.841 260.831 138.892 261.148 138.951 261.471L173.622 261.845C173.622 261.845 173.681 261.489 173.687 260.925C173.676 260.636 173.66 260.3 173.602 259.907C173.589 259.838 173.584 259.756 173.557 259.68C173.2 257.724 171.806 255.015 167.081 254.097C166.854 254.04 166.614 254.009 166.353 253.973H166.333C165.962 253.914 165.591 253.875 165.193 253.837C165.063 253.828 164.932 253.813 164.802 253.805C155.326 252.96 151.161 249.733 151.161 249.733C151.161 249.733 145.651 250.773 140.509 249.618C140.509 249.618 139.894 250.615 139.339 252.355C139.253 252.65 139.16 252.965 139.074 253.301C139.052 253.362 139.038 253.431 139.016 253.506C138.98 253.636 138.951 253.787 138.922 253.938C138.915 253.98 138.901 254.034 138.9 254.076C138.9 254.11 138.879 254.123 138.879 254.151C138.734 254.865 138.622 255.646 138.572 256.492C138.521 257.371 138.518 258.312 138.617 259.303Z" fill="#154340"/>
<path d="M154.599 250.052C154.482 249.942 154.328 249.86 154.163 249.865C153.988 249.871 153.859 249.936 153.723 250.042C153.626 250.117 153.53 250.19 153.433 250.264C152.972 250.612 152.504 250.949 152.027 251.275C151.891 251.367 151.785 251.479 151.738 251.642C151.696 251.79 151.712 251.987 151.795 252.12C151.962 252.385 152.354 252.547 152.641 252.352C153.305 251.897 153.953 251.421 154.589 250.928C154.706 250.838 154.774 250.633 154.775 250.492C154.778 250.339 154.713 250.157 154.599 250.052Z" fill="white"/>
<path d="M157.042 251.182C156.812 250.966 156.394 250.912 156.166 251.172C155.706 251.696 155.195 252.169 154.642 252.592C154.554 252.657 154.464 252.722 154.374 252.784C154.238 252.878 154.132 252.988 154.085 253.152C154.042 253.299 154.059 253.497 154.142 253.63C154.308 253.894 154.702 254.059 154.988 253.862C155.738 253.342 156.43 252.744 157.033 252.058C157.142 251.933 157.217 251.793 157.219 251.622C157.221 251.47 157.155 251.288 157.042 251.182Z" fill="white"/>
<path d="M159.29 252.007C159.173 251.897 159.019 251.815 158.854 251.821C158.701 251.826 158.513 251.873 158.413 251.998L156.988 253.79C156.881 253.924 156.804 254.046 156.802 254.226C156.8 254.378 156.866 254.56 156.979 254.665C157.096 254.775 157.25 254.858 157.416 254.852C157.568 254.847 157.756 254.8 157.856 254.675L159.281 252.883C159.388 252.748 159.465 252.627 159.467 252.447C159.468 252.295 159.402 252.112 159.29 252.007Z" fill="white"/>
<path d="M161.786 252.618C161.489 252.457 161.111 252.534 160.934 252.835C160.621 253.357 160.311 253.875 159.999 254.397C159.806 254.675 159.886 255.113 160.192 255.279C160.488 255.44 160.868 255.362 161.044 255.062C161.357 254.54 161.666 254.022 161.979 253.499C162.172 253.221 162.091 252.784 161.786 252.618Z" fill="white"/>
<path d="M130.955 122.658C133.391 144.84 138.998 227.192 140.254 245.848C140.419 248.276 140.509 249.622 140.509 249.622C146.621 251.81 151.162 249.729 151.162 249.729C151.162 249.729 151.294 248.325 151.518 245.806C153.144 227.555 159.726 150.637 157.926 122.657H130.955V122.658Z" fill="#EBBDA4"/>
<path d="M154.062 246.035C152.983 246.119 151.546 246.161 149.961 246.177H149.697C145.828 246.209 141.148 246.066 138.536 245.882C137.55 231.23 134.94 177.261 132.682 144.031C132.595 142.72 132.505 141.441 132.418 140.196V140.186C132.392 139.843 132.368 139.503 132.344 139.165C132.152 136.475 131.965 133.967 131.78 131.676C131.773 131.586 131.764 131.499 131.759 131.412C131.477 127.933 131.208 124.969 130.955 122.659H157.928C159.726 150.636 155.689 227.785 154.062 246.035Z" fill="#26645F"/>
<path d="M134.349 122.659C133.935 126.443 133.326 131.99 132.585 138.674C132.53 139.173 132.474 139.677 132.419 140.186C132.414 140.222 132.409 140.26 132.406 140.299C128.788 172.957 122.375 230.33 120.381 245.866C119.429 245.929 118.213 245.963 116.871 245.976C116.781 245.976 116.694 245.976 116.605 245.979C112.707 246.005 107.829 245.869 105.094 245.758C104.641 227.483 104.456 150.787 106.255 122.66L134.349 122.659Z" fill="#26645F"/>
<path d="M132.35 134.253C132.303 133.368 132.256 132.483 132.209 131.598C132.266 131.522 132.242 131.396 132.139 131.39C132.089 131.361 132.023 131.363 131.98 131.399C131.065 131.487 130.124 131.214 129.426 130.606C128.708 129.981 128.287 129.061 128.269 128.111C128.265 127.941 128.002 127.944 128.005 128.114C128.024 129.129 128.473 130.127 129.241 130.795C129.98 131.438 130.975 131.75 131.948 131.665C132.116 134.827 132.283 137.99 132.451 141.152C132.5 142.072 132.548 142.991 132.598 143.91C132.607 144.08 132.871 144.077 132.861 143.907C132.691 140.69 132.52 137.472 132.35 134.253Z" fill="#154340"/>
<path d="M155.73 129.985C153.328 130.328 150.871 129.282 149.461 127.307C149.093 126.791 148.799 126.226 148.592 125.627C148.537 125.468 148.282 125.537 148.338 125.697C149.149 128.038 151.199 129.8 153.648 130.214C154.362 130.335 155.084 130.341 155.801 130.239C155.968 130.216 155.897 129.961 155.73 129.985Z" fill="#154340"/>
<path d="M154.064 130.151C154.064 130.19 154.062 130.23 154.062 130.27C153.896 138.806 153.7 147.343 153.473 155.879C153.072 171.079 152.574 186.277 151.981 201.472C151.398 216.38 150.728 231.28 149.961 246.177H149.697C150.118 237.978 150.512 229.776 150.878 221.576C151.554 206.383 152.136 191.188 152.621 175.99C153.112 160.742 153.499 145.489 153.797 130.236C153.8 130.207 153.8 130.181 153.8 130.152C153.803 129.979 154.067 129.979 154.064 130.151Z" fill="#154340"/>
<path d="M129.478 135.338C128.547 143.508 127.617 151.678 126.685 159.845C125.04 174.27 123.397 188.695 121.754 203.12C120.124 217.402 118.497 231.691 116.87 245.976C116.78 245.976 116.693 245.976 116.604 245.979C117.511 238.02 118.418 230.063 119.325 222.107C120.97 207.682 122.614 193.257 124.257 178.832C125.911 164.336 127.561 149.836 129.215 135.338C129.233 135.172 129.497 135.172 129.478 135.338Z" fill="#154340"/>
<path d="M91.8996 112.939C90.8965 113.702 83.9323 111.947 83.4284 113.39C82.968 114.71 85.6951 116.15 87.252 115.838C85.7484 117.154 78.4033 120.507 79.3013 121.93C79.9663 122.983 85.2022 119.842 85.2022 119.842C85.2022 119.842 79.5273 124.148 80.6251 125.353C81.7229 126.559 86.9554 121.483 86.9554 121.483C86.9554 121.483 82.7723 126.051 83.8079 126.863C84.8262 127.662 88.7756 122.571 88.7756 122.571C88.7756 122.571 86.2669 127.04 86.8766 127.453C87.487 127.866 89.6494 125.497 90.7548 123.228C94.7353 121.422 96.0446 117.743 96.0446 117.743L91.8996 112.939Z" fill="#EBBDA4"/>
<path d="M118.979 91.6244C118.046 97.3394 97.5082 119.413 97.5082 119.413C94.3434 117.864 89.1151 112.161 89.1151 112.161L108.68 89.2525C108.68 89.2525 108.895 51.4044 117.319 48.3405C117.319 48.3405 120.556 81.9289 118.979 91.6244Z" fill="#E6FDF8"/>
<path d="M105.572 123.072C113.712 127.621 141.487 126.446 153.429 124.776C153.916 124.709 154.36 124.642 154.797 124.566C157.239 124.181 158.758 123.778 158.934 123.425L158.321 119.347L157.826 116.049L157.508 113.977L157.013 110.688L147.497 47.5421L144.543 46.8037L141.245 45.9811L137.125 44.949L127.265 45.0326L123.279 46.3585L119.906 47.4743L117.321 48.3384L107.671 109.739L107.142 113.07L106.806 115.227L106.277 118.567L105.572 123.072Z" fill="#FFE3D6"/>
<path d="M125.937 45.473L116.722 162.412H99.0815L117.32 48.3377L125.937 45.473Z" fill="#E6FDF8"/>
<path d="M115.998 56.6914C115.325 60.8054 114.652 64.92 113.979 69.034C113.306 73.1479 112.633 77.2625 111.96 81.3765C111.581 83.6937 111.202 86.0103 110.823 88.3275C110.796 88.4934 111.05 88.5633 111.077 88.396C111.75 84.282 112.423 80.1674 113.096 76.0534C113.77 71.9395 114.442 67.8249 115.116 63.7109C115.494 61.3937 115.874 59.0771 116.253 56.7599C116.28 56.5939 116.025 56.5241 115.998 56.6914Z" fill="#BEFCF3"/>
<path d="M125.937 45.473L118.518 53.2909L121.929 56.4778L118.787 62.0435L123.245 79.6372L125.937 45.473Z" fill="#BEFCF3"/>
<path d="M165.1 162.411H135.301L137.998 45.1667L140.309 45.7447L141.253 45.979L147.495 47.54L165.1 162.411Z" fill="#E6FDF8"/>
<path d="M137.999 45.1667L144.687 54.0085L141.343 57.5549L143.565 62.8517L137.206 79.6372L137.999 45.1667Z" fill="#BEFCF3"/>
<path d="M125.306 113.483C124.434 113.573 124.099 114.652 122.69 114.922C121.281 115.192 118.933 114.399 117.928 114.894C116.923 115.39 110.633 120.721 111.92 122.029C112.686 122.806 116.016 119.692 116.135 119.717C116.253 119.742 112.51 124.087 113.679 125.043C114.849 125.998 118.488 120.457 118.637 120.522C118.784 120.586 116.303 125.12 117.582 125.746C118.861 126.371 120.822 121.731 120.975 121.735C121.127 121.738 120.515 125.92 121.485 126.174C122.456 126.429 123.426 121.35 123.655 121.355C123.884 121.36 125.895 122.357 127.607 121.995C129.319 121.634 131.387 118.463 130.877 117.202C130.366 115.94 126.439 113.367 125.306 113.483Z" fill="#FABB98"/>
<path d="M147.496 47.5406C154.428 50.6875 155.992 76.8208 156.286 80.5359C156.713 85.9225 156.387 91.0409 152.812 95.1161C150.694 97.5308 130.955 120.846 130.955 120.846C130.955 120.846 125.071 118.007 121.929 113.95L143.655 85.189L142.981 66.4423L147.496 47.5406Z" fill="#E6FDF8"/>
<path d="M157.172 89.2725C154.433 92.53 151.695 95.7881 148.956 99.0455C146.217 102.303 143.478 105.561 140.739 108.818C139.201 110.649 137.662 112.479 136.123 114.309C136.015 114.438 136.195 114.631 136.304 114.501C139.043 111.244 141.781 107.985 144.52 104.728C147.259 101.47 149.997 98.2125 152.736 94.955C154.275 93.1245 155.814 91.2946 157.353 89.464C157.461 89.3354 157.28 89.1426 157.172 89.2725Z" fill="#BEFCF3"/>
<path d="M145.874 82.0125C145.022 83.1359 144.17 84.2586 143.318 85.3819C142.798 81.4933 142.409 77.5875 142.155 73.6726C142.083 72.5534 142.021 71.4328 141.97 70.3122C141.962 70.1435 141.698 70.1421 141.706 70.3122C141.888 74.3162 142.208 78.314 142.668 82.2959C142.797 83.411 142.937 84.5254 143.087 85.6377C143.089 85.6508 143.094 85.6605 143.099 85.6709C141.563 87.695 140.029 89.7192 138.493 91.7433C137.806 92.6503 137.118 93.5573 136.431 94.4636C136.328 94.5991 136.557 94.7304 136.658 94.597C139.118 91.3534 141.578 88.1098 144.038 84.8662C144.725 83.9592 145.413 83.0522 146.101 82.1459C146.204 82.0104 145.975 81.8791 145.874 82.0125Z" fill="#BEFCF3"/>
<path d="M140.882 53.8169C137.762 53.483 134.953 55.7498 134.619 58.869L133.349 70.738C133.253 71.6332 133.904 72.4393 134.799 72.5347L135.689 72.6301L135.673 72.7808C135.653 72.9688 135.789 73.1375 135.977 73.1575L136.384 73.2011C136.572 73.2211 136.741 73.0849 136.761 72.8969L136.903 71.5689C136.923 71.3809 136.787 71.2122 136.599 71.1921L136.192 71.1486C136.004 71.1285 135.835 71.2647 135.815 71.4528L135.794 71.6505L134.904 71.5551C134.549 71.5171 134.291 71.197 134.329 70.8423L135.599 58.9734C135.875 56.3941 138.198 54.52 140.777 54.7958C143.357 55.0716 145.231 57.3951 144.955 59.9744L143.685 71.8434C143.647 72.1987 143.327 72.4565 142.972 72.4185L142.014 72.3162L142.036 72.1185C142.056 71.9305 141.919 71.7618 141.731 71.7417L141.324 71.6982C141.136 71.6781 140.968 71.8143 140.947 72.0023L140.805 73.3303C140.785 73.5184 140.921 73.6871 141.109 73.7071L141.516 73.7507C141.704 73.7707 141.873 73.6345 141.893 73.4465L141.909 73.2958L142.867 73.3981C143.762 73.4942 144.569 72.8437 144.664 71.9484L145.934 60.0794C146.268 56.9596 144.002 54.1501 140.882 53.8169Z" fill="#154340"/>
<path d="M141.543 54.1122C141.395 54.6002 140.63 54.3914 140.778 53.9041C141.577 51.2592 141.4 48.2872 140.309 45.7446L141.253 45.979C142.226 48.5769 142.347 51.443 141.543 54.1122Z" fill="#154340"/>
<path d="M121.699 61.2802C121.699 62.6684 120.574 63.7938 119.186 63.7938C117.798 63.7938 116.672 62.6684 116.672 61.2802C116.672 59.8921 117.798 58.7667 119.186 58.7667C120.574 58.7667 121.699 59.8921 121.699 61.2802Z" fill="#154340"/>
<path d="M120.398 61.2803C120.398 61.9495 119.855 62.4921 119.186 62.4921C118.517 62.4921 117.974 61.9495 117.974 61.2803C117.974 60.6111 118.517 60.0684 119.186 60.0684C119.855 60.0684 120.398 60.6111 120.398 61.2803Z" fill="#01BCA7"/>
<path d="M121.699 46.8797C120.44 48.6412 120.049 50.1378 119.947 52.3002C119.843 54.5193 120.778 57.0239 119.628 59.0916C119.38 59.5368 120.063 59.9364 120.311 59.4912C121.484 57.3799 120.714 55.0101 120.726 52.7482C120.737 50.5644 121.544 48.2941 122.803 46.5147L121.699 46.8797Z" fill="#154340"/>
<path d="M138.957 33.4775C143.855 30.1323 146.941 24.2825 146.936 18.3504C146.936 17.1503 146.811 15.9288 146.34 14.8248C145.869 13.7208 145.014 12.7405 143.889 12.325C142.42 8.59682 139.935 5.41614 136.479 3.38786C133.952 1.90432 131.075 1.05194 128.157 0.781643C126.194 0.599831 124.184 0.681404 122.301 1.26279C120.418 1.84418 118.663 2.95303 117.515 4.55478C116.366 6.15653 115.881 8.2726 116.436 10.164C114.984 11.931 114.037 14.2413 114.159 16.5247C114.281 18.8081 115.287 21.0334 116.919 22.6351C118.135 23.8276 118.576 25.5545 119.86 26.6723C124.996 31.1451 132.149 33.689 138.957 33.4775Z" fill="#381A08"/>
<path d="M140.814 29.7832C140.814 29.7832 137.14 37.2645 136.963 47.2704C134.842 51.7894 128.722 51.058 127.25 46.978C127.36 43.1737 126.707 41.3846 125.509 40.0649C125.409 39.9543 125.311 39.8568 125.207 39.7511C125.136 39.6757 125.065 39.6101 124.986 39.5395C124.845 39.4075 124.681 39.2851 124.525 39.149C124.305 38.9741 124.075 38.7992 123.837 38.6201H123.832C122.892 37.917 121.79 37.1739 120.567 36.0692C118.785 34.4723 117.461 32.2857 116.955 28.8762C116.945 28.8354 116.939 28.7946 116.933 28.749C116.922 28.6992 116.915 28.6494 116.909 28.599C116.897 28.5084 116.89 28.4261 116.882 28.3397C116.872 28.2989 116.87 28.2623 116.865 28.2264C116.489 24.8901 116.824 20.4402 118.167 14.3049C119.56 7.94422 135.078 5.66638 139.233 13.8486C140.943 17.2284 140.814 29.7832 140.814 29.7832Z" fill="#EBBDA4"/>
<path d="M117.671 13.2507C118.12 13.8826 118.882 14.2026 119.618 14.448C124.318 16.0173 129.608 15.7387 134.119 13.6855C134.108 14.2939 134.096 14.7702 134.21 15.3682C134.323 15.9654 134.562 16.5531 134.982 16.9927C135.402 17.4324 136.019 17.7068 136.621 17.6253C136.353 19.4427 136.62 21.406 137.365 23.0859C138.109 24.7657 139.338 26.2272 140.864 27.2496C141.672 24.3945 142.274 21.4419 142.089 18.4804C141.903 15.5189 140.864 12.5304 138.77 10.4288C137.393 9.04758 135.616 8.10256 133.747 7.54607C130.838 6.67986 127.662 6.73655 124.786 7.70576C121.911 8.67566 119.462 10.8007 117.671 13.2507Z" fill="#381A08"/>
<path d="M124.229 27.1804C124.005 27.0663 123.768 26.9979 123.517 26.9827C123.294 26.9689 123.048 26.9986 122.862 27.1327C122.663 27.2772 122.563 27.5012 122.543 27.7424C122.524 27.9733 122.599 28.2008 122.684 28.4109C122.73 28.5236 122.838 28.619 122.97 28.5782C123.079 28.5443 123.187 28.4137 123.138 28.292C123.076 28.1379 123.006 27.9706 123.008 27.8019C123.009 27.7155 123.032 27.627 123.084 27.5579C123.081 27.5627 123.078 27.5668 123.076 27.571C123.123 27.4963 123.214 27.4694 123.297 27.4549C123.303 27.4535 123.309 27.4528 123.319 27.4514C123.336 27.4514 123.354 27.4486 123.372 27.4479C123.419 27.4459 123.465 27.4466 123.512 27.4493C123.537 27.4507 123.56 27.4535 123.584 27.4555C123.596 27.4569 123.597 27.4562 123.601 27.4569C123.605 27.4576 123.605 27.4576 123.616 27.4597C123.762 27.486 123.886 27.5454 124.023 27.5945C124.127 27.6311 124.255 27.6007 124.31 27.4998C124.366 27.3968 124.345 27.2399 124.229 27.1804Z" fill="#C16B5B"/>
<path d="M119.055 21.2981C120.285 20.6331 121.776 20.5702 123.031 21.2193C123.338 21.3783 123.508 21.7855 123.334 22.1042C123.109 22.5176 122.705 22.5176 122.326 22.3454C121.987 22.1927 121.622 22.0986 121.253 22.0689C121.254 22.0489 121.285 22.0841 121.265 22.0827C120.791 22.0565 120.322 22.1526 119.89 22.3468C119.864 22.3586 119.839 22.3703 119.798 22.3897C119.495 22.5501 119.087 22.539 118.886 22.2169C118.711 21.941 118.73 21.4737 119.055 21.2981Z" fill="black"/>
<path d="M127.028 21.3541C128.33 20.8467 129.818 20.9684 130.982 21.7682C131.267 21.9638 131.385 22.389 131.174 22.6835C130.969 22.969 130.563 23.0844 130.258 22.875C130.141 22.7948 130.02 22.725 129.896 22.6551C129.884 22.6489 129.886 22.6503 129.879 22.6461C129.857 22.6358 129.834 22.6261 129.812 22.6164C129.763 22.5957 129.714 22.5756 129.664 22.557C129.532 22.5072 129.397 22.4657 129.259 22.4318C129.225 22.4236 129.005 22.3572 129.174 22.4104C129.118 22.3924 129.049 22.3911 128.99 22.3848C128.859 22.3696 128.726 22.3613 128.594 22.3606C128.523 22.3599 128.453 22.3641 128.381 22.3662C128.374 22.3662 128.371 22.3662 128.365 22.3662C128.355 22.3676 128.341 22.3696 128.321 22.3717C128.189 22.3876 128.059 22.4111 127.93 22.4422C127.862 22.4588 127.793 22.4775 127.725 22.4982C127.698 22.5065 127.672 22.5155 127.645 22.5245C127.64 22.5266 127.642 22.5259 127.636 22.5279C127.634 22.5286 127.632 22.5286 127.631 22.5293C127.629 22.53 127.626 22.5307 127.624 22.5314C127.627 22.5307 127.626 22.5307 127.629 22.53C127.308 22.6517 126.905 22.5908 126.744 22.2459C126.608 21.9493 126.684 21.4882 127.028 21.3541Z" fill="black"/>
<path d="M126.605 30.3866C125.763 31.0275 124.695 31.322 123.644 31.2252C123.353 31.1982 123.329 31.651 123.619 31.678C124.793 31.7865 125.971 31.4374 126.907 30.7247C127.14 30.547 126.836 30.2104 126.605 30.3866Z" fill="#8E4136"/>
<path d="M129.607 25.8393C129.627 26.4297 129.164 26.924 128.573 26.944C127.983 26.9641 127.489 26.5009 127.469 25.9105C127.449 25.3201 127.912 24.8259 128.502 24.8058C129.093 24.7858 129.588 25.2489 129.607 25.8393Z" fill="black"/>
<path d="M128.464 25.5352C128.47 25.7073 128.335 25.8511 128.163 25.8573C127.991 25.8628 127.847 25.728 127.841 25.5559C127.835 25.3838 127.97 25.24 128.141 25.2337C128.314 25.2282 128.458 25.363 128.464 25.5352Z" fill="white"/>
<path d="M121.804 25.6236C121.824 26.214 121.361 26.7083 120.771 26.7283C120.18 26.7484 119.686 26.2852 119.666 25.6948C119.647 25.1045 120.109 24.6102 120.699 24.5901C121.29 24.5708 121.784 25.0332 121.804 25.6236Z" fill="black"/>
<path d="M120.661 25.3195C120.666 25.4916 120.531 25.6354 120.359 25.6416C120.187 25.6471 120.043 25.5123 120.037 25.3402C120.032 25.1681 120.166 25.0243 120.339 25.018C120.511 25.0125 120.655 25.1473 120.661 25.3195Z" fill="white"/>
<path d="M144.188 30.171C142.816 31.7092 140.715 32.0735 139.494 30.9854C138.273 29.8966 138.396 27.7673 139.766 26.2292C141.138 24.691 143.24 24.3267 144.46 25.4148C145.681 26.5036 145.56 28.6329 144.188 30.171Z" fill="#EBBDA4"/>
<path d="M143.574 26.1614C143.02 25.8469 142.269 25.8379 141.566 26.1393C141.215 26.2893 140.959 26.4767 140.781 26.7124C140.545 27.0249 140.47 27.4238 140.585 27.7535C140.688 28.0494 140.915 28.2464 141.117 28.4206C141.262 28.5464 141.399 28.6653 141.475 28.8043C141.591 29.0186 141.551 29.3117 141.382 29.4873C141.213 29.6622 140.922 29.7113 140.704 29.6027C140.575 29.5385 140.42 29.591 140.357 29.7189C140.293 29.8461 140.344 30.0023 140.473 30.0666C140.613 30.1364 140.766 30.1724 140.921 30.1772C141.228 30.1862 141.54 30.0708 141.756 29.8468C142.081 29.5101 142.154 28.9688 141.931 28.5575C141.811 28.3363 141.623 28.1731 141.457 28.0293C141.29 27.8856 141.133 27.7487 141.075 27.5828C141.017 27.4168 141.064 27.1977 141.195 27.0242C141.248 26.9544 141.319 26.8921 141.397 26.832C141.654 26.8375 141.973 26.9267 142.131 27.1085C142.308 27.3145 142.385 27.6076 142.333 27.8731C142.306 28.0134 142.397 28.1489 142.537 28.1766C142.551 28.1794 142.566 28.1807 142.579 28.1814C142.704 28.1856 142.816 28.0985 142.841 27.9727C142.924 27.5489 142.805 27.1002 142.523 26.7712C142.418 26.6495 142.285 26.5645 142.144 26.4953C142.575 26.393 142.997 26.4283 143.319 26.6115C143.717 26.8375 144.006 27.3989 143.784 27.842C143.721 27.9699 143.773 28.1254 143.9 28.189C144.028 28.2526 144.183 28.2015 144.248 28.0729C144.568 27.4279 144.26 26.552 143.574 26.1614Z" fill="#C16B5B"/>
<path d="M236.52 259.303L236.551 259.529C236.582 259.867 236.62 260.19 236.678 260.542C236.744 260.831 236.795 261.148 236.854 261.471L271.524 261.845C271.524 261.845 271.583 261.489 271.589 260.925C271.579 260.636 271.562 260.3 271.504 259.907C271.491 259.838 271.486 259.756 271.459 259.68C271.102 257.724 269.708 255.015 264.983 254.097C264.757 254.04 264.516 254.009 264.255 253.973H264.235C263.864 253.914 263.494 253.875 263.095 253.837C262.965 253.828 262.834 253.813 262.704 253.805C253.228 252.96 249.063 249.733 249.063 249.733C249.063 249.733 243.554 250.773 238.411 249.618C238.411 249.618 237.796 250.615 237.241 252.355C237.155 252.65 237.062 252.965 236.976 253.301C236.954 253.362 236.94 253.431 236.919 253.506C236.883 253.636 236.854 253.787 236.825 253.938C236.818 253.98 236.803 254.034 236.802 254.076C236.802 254.11 236.781 254.123 236.781 254.151C236.636 254.865 236.524 255.646 236.474 256.492C236.424 257.371 236.42 258.312 236.52 259.303Z" fill="#26645F"/>
<path d="M252.502 250.052C252.385 249.942 252.231 249.86 252.066 249.865C251.891 249.871 251.763 249.936 251.625 250.042C251.529 250.117 251.433 250.19 251.336 250.264C250.875 250.612 250.406 250.949 249.93 251.275C249.794 251.367 249.688 251.479 249.641 251.642C249.599 251.79 249.614 251.987 249.698 252.12C249.865 252.385 250.257 252.547 250.544 252.352C251.208 251.897 251.856 251.421 252.492 250.928C252.608 250.838 252.676 250.633 252.678 250.492C252.68 250.339 252.615 250.157 252.502 250.052Z" fill="white"/>
<path d="M254.944 251.182C254.715 250.966 254.297 250.912 254.068 251.172C253.609 251.696 253.097 252.169 252.544 252.592C252.456 252.657 252.367 252.722 252.276 252.784C252.14 252.878 252.034 252.988 251.987 253.152C251.945 253.299 251.961 253.497 252.044 253.63C252.21 253.894 252.604 254.059 252.89 253.862C253.641 253.342 254.332 252.744 254.935 252.058C255.045 251.933 255.119 251.793 255.121 251.622C255.123 251.47 255.057 251.288 254.944 251.182Z" fill="white"/>
<path d="M257.192 252.007C257.075 251.897 256.921 251.815 256.755 251.821C256.603 251.826 256.415 251.873 256.315 251.998L254.89 253.79C254.783 253.924 254.706 254.046 254.704 254.226C254.702 254.378 254.768 254.56 254.881 254.665C254.998 254.775 255.152 254.858 255.318 254.852C255.47 254.847 255.658 254.8 255.758 254.675L257.183 252.883C257.29 252.748 257.367 252.627 257.369 252.447C257.37 252.295 257.304 252.112 257.192 252.007Z" fill="white"/>
<path d="M259.688 252.618C259.391 252.457 259.012 252.534 258.836 252.835C258.523 253.357 258.213 253.875 257.901 254.397C257.708 254.675 257.789 255.113 258.094 255.279C258.39 255.44 258.769 255.362 258.946 255.062C259.259 254.54 259.568 254.022 259.881 253.499C260.074 253.221 259.993 252.784 259.688 252.618Z" fill="white"/>
<path d="M249.165 245.782C249.107 248.318 249.066 249.73 249.066 249.73C249.066 249.73 244.516 251.81 238.412 249.622C238.412 249.622 238.231 248.193 237.9 245.634C235.456 226.573 225.009 144.757 222.589 122.658H249.561C251.362 150.785 249.619 227.506 249.165 245.782Z" fill="#754933"/>
<path d="M217.199 259.303L217.167 259.529C217.137 259.867 217.099 260.19 217.041 260.542C216.975 260.831 216.924 261.148 216.865 261.471L182.194 261.845C182.194 261.845 182.135 261.489 182.129 260.925C182.139 260.636 182.156 260.3 182.214 259.907C182.227 259.838 182.232 259.756 182.259 259.68C182.616 257.724 184.01 255.015 188.735 254.097C188.961 254.04 189.202 254.009 189.463 253.973H189.483C189.854 253.914 190.225 253.875 190.623 253.837C190.753 253.828 190.884 253.813 191.014 253.805C200.49 252.96 204.655 249.733 204.655 249.733C204.655 249.733 210.164 250.773 215.307 249.618C215.307 249.618 215.923 250.615 216.477 252.355C216.563 252.65 216.656 252.965 216.742 253.301C216.764 253.362 216.778 253.431 216.8 253.506C216.836 253.636 216.865 253.787 216.894 253.938C216.901 253.98 216.915 254.034 216.916 254.076C216.916 254.11 216.937 254.123 216.937 254.151C217.082 254.865 217.194 255.646 217.244 256.492C217.295 257.371 217.298 258.312 217.199 259.303Z" fill="#26645F"/>
<path d="M201.217 250.052C201.334 249.942 201.488 249.86 201.653 249.865C201.828 249.871 201.957 249.936 202.093 250.042C202.19 250.117 202.286 250.19 202.383 250.264C202.844 250.612 203.313 250.949 203.789 251.275C203.925 251.367 204.031 251.479 204.078 251.642C204.121 251.79 204.104 251.987 204.021 252.12C203.854 252.385 203.462 252.547 203.175 252.352C202.511 251.897 201.863 251.421 201.227 250.928C201.11 250.838 201.042 250.633 201.04 250.492C201.039 250.339 201.104 250.157 201.217 250.052Z" fill="white"/>
<path d="M198.775 251.182C199.004 250.966 199.422 250.912 199.65 251.172C200.11 251.696 200.621 252.169 201.174 252.592C201.263 252.657 201.352 252.722 201.442 252.784C201.578 252.878 201.684 252.988 201.731 253.152C201.773 253.299 201.757 253.497 201.674 253.63C201.508 253.894 201.114 254.059 200.828 253.862C200.078 253.342 199.386 252.744 198.784 252.058C198.674 251.933 198.599 251.793 198.598 251.622C198.596 251.47 198.661 251.288 198.775 251.182Z" fill="white"/>
<path d="M196.526 252.007C196.643 251.897 196.797 251.815 196.963 251.821C197.115 251.826 197.304 251.873 197.403 251.998L198.828 253.79C198.935 253.924 199.012 254.046 199.014 254.226C199.016 254.378 198.951 254.56 198.838 254.665C198.721 254.775 198.567 254.858 198.401 254.852C198.249 254.847 198.06 254.8 197.961 254.675L196.536 252.883C196.429 252.748 196.352 252.627 196.35 252.447C196.348 252.295 196.414 252.112 196.526 252.007Z" fill="white"/>
<path d="M194.031 252.618C194.327 252.457 194.707 252.534 194.883 252.835C195.196 253.357 195.505 253.875 195.818 254.397C196.011 254.675 195.931 255.113 195.625 255.279C195.328 255.44 194.949 255.362 194.773 255.062C194.46 254.54 194.15 254.022 193.838 253.499C193.644 253.221 193.725 252.784 194.031 252.618Z" fill="white"/>
<path d="M224.861 122.658C222.425 144.84 216.818 227.192 215.562 245.848C215.397 248.276 215.306 249.622 215.306 249.622C209.195 251.81 204.653 249.729 204.653 249.729C204.653 249.729 204.521 248.325 204.298 245.806C202.671 227.555 196.09 150.637 197.89 122.657H224.861V122.658Z" fill="#754933"/>
<path d="M224.861 122.658C222.425 144.839 218.534 227.226 217.279 245.881C213.53 246.145 205.504 246.324 201.754 246.035C200.127 227.784 196.089 150.637 197.889 122.658H224.861Z" fill="#538E80"/>
<path d="M250.723 245.758C246.974 245.907 239.185 246.113 235.436 245.865C232.992 226.805 223.888 144.757 221.467 122.657H249.561C251.362 150.785 251.177 227.483 250.723 245.758Z" fill="#538E80"/>
<path d="M226.942 127.887C226.714 129.219 225.54 130.163 224.201 130.131C224.176 130.003 223.955 130.026 223.942 130.18C223.646 133.845 223.35 137.51 223.054 141.176C222.971 142.201 222.888 143.227 222.806 144.252C222.792 144.421 223.055 144.405 223.069 144.238C223.365 140.573 223.662 136.907 223.957 133.242C224.034 132.293 224.111 131.343 224.188 130.393C225.649 130.446 226.952 129.39 227.2 127.943C227.229 127.777 226.971 127.719 226.942 127.887Z" fill="#FFE3D6"/>
<path d="M238.495 48.3378C243.129 50.0812 246.226 85.6038 246.226 85.6038L269.238 110.073L262.931 115.555C262.931 115.555 243.331 97.3477 240.167 94.1159C237.002 90.884 236.195 86.2378 236.396 82.8041C236.598 79.3704 238.495 48.3378 238.495 48.3378Z" fill="#754933"/>
<path d="M266.672 109.085C267.926 109.822 273.002 110.968 274.093 112.55C275.182 114.133 278.392 120.32 277.413 120.965C276.792 121.375 274.295 117.583 274.295 117.583C274.295 117.583 276.157 122.63 275.172 122.941C274.187 123.252 272.403 118.121 272.403 118.121C272.403 118.121 273.808 123.69 272.588 123.978C271.368 124.266 270.436 118.474 270.436 118.474C270.436 118.474 270.737 120.494 269.243 121.388C268.086 122.081 266.316 121.996 266.199 121.313C266.082 120.63 267.986 120.137 268.145 119.903C268.304 119.669 268.287 118.519 268.287 118.519C265.299 118.86 262.93 115.555 262.93 115.555L266.672 109.085Z" fill="#754933"/>
<path d="M238.495 48.3378C244.7 50.7318 247.393 76.946 247.393 76.946C247.393 76.946 244.23 77.8433 238.495 77.7534V48.3378Z" fill="#538E80"/>
<path d="M250.243 123.072C242.103 127.621 214.328 126.446 202.386 124.776C201.9 124.709 201.455 124.642 201.018 124.566C198.577 124.181 197.058 123.778 196.882 123.425L197.494 119.347L197.989 116.049L198.308 113.977L198.803 110.688L208.318 47.5421L211.272 46.8037L214.571 45.9811L218.691 44.949L228.551 45.0326L232.537 46.3585L235.91 47.4743L238.495 48.3384L248.145 109.739L248.674 113.07L249.01 115.227L249.539 118.567L250.243 123.072Z" fill="#538E80"/>
<path d="M235.863 126.056C231.394 126.264 226.917 126.313 222.445 126.2C217.973 126.087 213.505 125.814 209.052 125.381C206.545 125.137 204.043 124.843 201.548 124.498C201.382 124.475 201.31 124.729 201.478 124.752C205.922 125.367 210.386 125.824 214.862 126.118C219.327 126.412 223.801 126.546 228.275 126.519C230.806 126.504 233.336 126.437 235.864 126.319C236.032 126.312 236.033 126.048 235.863 126.056Z" fill="#FFE3D6"/>
<path d="M215.789 45.6742L214.614 50.3605L225.084 55.5736L233.055 50.4781L231.264 45.9334L215.789 45.6742Z" fill="#26645F"/>
<path d="M215.79 45.6742L225.084 55.5736L231.264 45.9334L228.552 45.0313L218.692 44.9476L215.79 45.6742Z" fill="#754933"/>
<path d="M228.697 64.7818L208.987 80.2456L213.1 60.5179L208.32 47.5407C200.576 50.5527 197.415 79.342 197.018 84.4521C196.57 90.2425 203.302 95.8801 209.946 93.1508C216.589 90.4215 234.255 70.4788 234.255 70.4788L228.697 64.7818Z" fill="#754933"/>
<path d="M227.734 66.2571C227.703 65.3819 228.726 64.9021 228.8 63.469C228.874 62.036 227.765 59.8196 228.117 58.755C228.47 57.6911 232.886 50.7283 234.358 51.824C235.234 52.4759 232.607 56.2027 232.648 56.3168C232.689 56.4302 236.479 52.1254 237.586 53.1527C238.693 54.18 233.704 58.5463 233.789 58.6838C233.874 58.8214 238.024 55.7409 238.818 56.921C239.613 58.1017 235.287 60.6824 235.311 60.8324C235.335 60.9831 239.393 59.8023 239.778 60.7287C240.163 61.655 235.266 63.3135 235.303 63.5395C235.339 63.7649 236.604 65.6204 236.481 67.3659C236.358 69.1114 233.501 71.596 232.182 71.2642C230.863 70.9316 227.776 67.3949 227.734 66.2571Z" fill="#754933"/>
<path d="M208.319 47.5407C199.543 49.7446 196.221 76.6888 196.356 76.5706C196.491 76.4524 204.256 78.966 210.361 78.2028L214.132 61.1006L208.319 47.5407Z" fill="#538E80"/>
<path d="M214.419 61.1034C213.841 61.9724 213.263 62.8406 212.685 63.7096C212.847 62.701 213.017 61.6938 213.203 60.6893C213.233 60.5234 212.979 60.4522 212.948 60.6188C212.558 62.7376 212.22 64.8662 211.933 67.0016C211.644 69.1578 211.407 71.3209 211.225 73.4881C211.123 74.7069 211.038 75.9263 210.969 77.1479C210.959 77.3172 211.223 77.3172 211.232 77.1479C211.475 72.8376 211.927 68.5398 212.592 64.2737V64.2723C212.617 64.264 212.641 64.2495 212.659 64.2219C213.322 63.2271 213.983 62.2316 214.645 61.2368C214.74 61.0944 214.512 60.9624 214.419 61.1034Z" fill="#FFE3D6"/>
<path d="M241.583 67.6701C241.145 64.5599 240.647 61.4587 240.091 58.3679C239.776 56.6196 239.442 54.8754 239.09 53.1347C239.057 52.9688 238.802 53.0386 238.836 53.2046C239.459 56.2829 240.023 59.3724 240.528 62.4722C241.033 65.5706 241.479 68.6794 241.865 71.7951C242.082 73.5469 242.279 75.3014 242.459 77.0573C242.476 77.2246 242.739 77.226 242.723 77.0573C242.403 73.9215 242.022 70.7913 241.583 67.6701Z" fill="#FFE3D6"/>
<path d="M216.869 34.0313C215.359 34.4716 213.587 33.4333 213.233 31.9014C211.382 32.0984 209.459 31.107 208.547 29.4853C207.634 27.8635 207.785 25.7052 208.914 24.2258C207.777 23.0409 207.165 21.3694 207.267 19.731C207.369 18.0919 208.185 16.5102 209.461 15.476C208.74 13.4691 208.594 11.1581 209.558 9.25635C210.523 7.35457 212.778 6.04248 214.837 6.5976C215.678 3.44871 218.284 0.848718 221.474 0.178154C224.664 -0.49241 228.182 0.768528 230.22 3.31183C231.93 2.33433 234.104 2.21335 235.912 2.99521C237.72 3.77708 239.122 5.44243 239.582 7.35803C240.945 7.46034 242.212 8.39637 242.71 9.66975C243.209 10.9431 242.914 12.4896 241.982 13.4899C242.763 14.28 243.065 15.6115 243.061 16.7231C243.058 17.834 242.598 18.9374 241.812 19.7227C242.354 20.9207 242.323 22.3061 241.857 23.5359C241.391 24.7657 240.42 25.7951 239.22 26.3329C236.13 27.7176 233.752 30.2526 230.498 31.1866C225.973 32.4855 221.388 32.713 216.869 34.0313Z" fill="#381A08"/>
<path d="M215.002 29.7832C215.002 29.7832 218.676 37.2645 218.853 47.2704C220.974 51.7895 227.094 51.0581 228.567 46.978C228.456 43.1738 229.109 41.3847 230.307 40.065C230.407 39.9544 230.506 39.8569 230.61 39.7511C230.681 39.6758 230.751 39.6101 230.831 39.5396C230.972 39.4076 231.136 39.2852 231.291 39.149C231.512 38.9741 231.741 38.7992 231.98 38.6202H231.985C232.925 37.9171 234.026 37.174 235.25 36.0693C237.032 34.4723 238.355 32.2858 238.861 28.8762C238.871 28.8355 238.878 28.7947 238.884 28.7491C238.895 28.6993 238.901 28.6495 238.907 28.599C238.919 28.5085 238.927 28.4262 238.934 28.3398C238.945 28.299 238.946 28.2624 238.951 28.2264C239.328 24.8902 238.992 20.4403 237.65 14.305C236.256 7.94428 220.738 5.66644 216.583 13.8487C214.873 17.2285 215.002 29.7832 215.002 29.7832Z" fill="#754933"/>
<path d="M238.732 16.0643C237.675 16.3761 236.433 15.6011 236.248 14.5144C235.201 15.1891 233.658 14.9326 232.885 13.9551C232.072 14.7335 230.899 15.12 229.782 14.979C228.665 14.8379 227.625 14.1722 227.031 13.2161C226.591 14.1736 225.788 14.9596 224.821 15.3771C223.853 15.7954 222.731 15.8417 221.732 15.505C222.04 16.5994 221.879 17.8181 221.297 18.7943C220.714 19.7704 219.719 20.4914 218.609 20.7396C218.81 21.7406 218.823 22.7824 218.654 23.7889C218.484 24.7955 218.053 25.775 217.334 26.4988C216.614 27.2233 215.592 27.6692 214.574 27.5897C213.307 22.5294 213.963 17.0736 216.449 12.4875C217.428 10.6811 218.72 8.97707 220.49 7.93458C222.839 6.55198 225.714 6.49598 228.44 6.54092C230.122 6.56857 231.824 6.62318 233.446 7.06907C235.069 7.51496 236.627 8.39292 237.585 9.7769C238.841 11.5957 238.731 13.8549 238.732 16.0643Z" fill="#381A08"/>
<path d="M231.588 27.1805C231.811 27.0664 232.048 26.998 232.299 26.9828C232.522 26.9689 232.769 26.9987 232.954 27.1328C233.154 27.2772 233.254 27.5012 233.274 27.7425C233.293 27.9734 233.217 28.2008 233.132 28.411C233.087 28.5237 232.978 28.6191 232.846 28.5783C232.737 28.5444 232.63 28.4138 232.679 28.2921C232.741 28.1379 232.81 27.9706 232.808 27.8019C232.807 27.7155 232.784 27.6271 232.733 27.5579C232.735 27.5628 232.738 27.5669 232.741 27.5711C232.693 27.4964 232.602 27.4694 232.52 27.4549C232.514 27.4535 232.508 27.4528 232.498 27.4515C232.481 27.4515 232.463 27.4487 232.445 27.448C232.398 27.4459 232.352 27.4466 232.305 27.4494C232.281 27.4508 232.257 27.4535 232.233 27.4556C232.221 27.457 232.22 27.4563 232.216 27.457C232.212 27.4577 232.212 27.4577 232.201 27.4598C232.055 27.486 231.931 27.5455 231.794 27.5946C231.69 27.6312 231.562 27.6008 231.508 27.4999C231.45 27.3968 231.471 27.2399 231.588 27.1805Z" fill="#573322"/>
<path d="M236.761 21.2982C235.531 20.6331 234.04 20.5702 232.785 21.2194C232.478 21.3784 232.308 21.7855 232.482 22.1042C232.707 22.5176 233.111 22.5176 233.49 22.3455C233.828 22.1927 234.193 22.0987 234.563 22.069C234.562 22.0489 234.531 22.0842 234.551 22.0828C235.025 22.0565 235.494 22.1526 235.926 22.3469C235.951 22.3586 235.977 22.3704 236.018 22.3897C236.32 22.5501 236.728 22.5391 236.93 22.2169C237.104 21.9411 237.086 21.4738 236.761 21.2982Z" fill="black"/>
<path d="M228.788 21.3542C227.486 20.8468 225.998 20.9684 224.834 21.7683C224.549 21.9639 224.431 22.389 224.642 22.6835C224.847 22.969 225.253 23.0845 225.558 22.875C225.674 22.7948 225.796 22.725 225.92 22.6552C225.932 22.649 225.93 22.6504 225.937 22.6462C225.959 22.6358 225.982 22.6262 226.004 22.6165C226.053 22.5957 226.102 22.5757 226.151 22.557C226.284 22.5073 226.419 22.4658 226.557 22.4319C226.591 22.4236 226.811 22.3572 226.642 22.4105C226.698 22.3925 226.767 22.3911 226.825 22.3849C226.957 22.3697 227.09 22.3614 227.222 22.3607C227.293 22.36 227.363 22.3642 227.435 22.3662C227.442 22.3662 227.445 22.3662 227.45 22.3662C227.461 22.3676 227.475 22.3697 227.495 22.3718C227.627 22.3877 227.757 22.4112 227.886 22.4423C227.954 22.4589 228.023 22.4775 228.091 22.4983C228.118 22.5066 228.144 22.5156 228.171 22.5245C228.176 22.5266 228.174 22.5259 228.18 22.528C228.182 22.5287 228.184 22.5287 228.186 22.5294C228.188 22.5301 228.19 22.5308 228.192 22.5315C228.189 22.5308 228.19 22.5308 228.188 22.5301C228.508 22.6517 228.911 22.5909 229.072 22.2459C229.208 21.9494 229.132 21.4883 228.788 21.3542Z" fill="black"/>
<path d="M229.211 30.3867C230.053 31.0275 231.121 31.322 232.172 31.2253C232.463 31.1983 232.487 31.6511 232.197 31.6781C231.023 31.7866 229.845 31.4375 228.908 30.7247C228.676 30.5471 228.98 30.2104 229.211 30.3867Z" fill="#573322"/>
<path d="M226.209 25.8394C226.189 26.4297 226.652 26.924 227.242 26.9441C227.833 26.9641 228.327 26.5009 228.347 25.9106C228.367 25.3202 227.904 24.8259 227.313 24.8059C226.723 24.7858 226.228 25.249 226.209 25.8394Z" fill="black"/>
<path d="M227.351 25.5352C227.346 25.7073 227.481 25.8511 227.653 25.8574C227.825 25.8629 227.969 25.7281 227.975 25.556C227.98 25.3838 227.846 25.24 227.673 25.2338C227.501 25.2283 227.357 25.3631 227.351 25.5352Z" fill="white"/>
<path d="M234.011 25.6237C233.992 26.2141 234.455 26.7083 235.045 26.7284C235.635 26.7484 236.13 26.2853 236.15 25.6949C236.17 25.1045 235.707 24.6102 235.116 24.5902C234.526 24.5708 234.031 25.0333 234.011 25.6237Z" fill="black"/>
<path d="M235.155 25.3195C235.149 25.4917 235.284 25.6354 235.456 25.6417C235.628 25.6472 235.772 25.5124 235.778 25.3403C235.784 25.1681 235.649 25.0243 235.477 25.0181C235.305 25.0126 235.16 25.1474 235.155 25.3195Z" fill="white"/>
<path d="M211.628 30.171C212.999 31.7092 215.101 32.0735 216.322 30.9854C217.543 29.8966 217.42 27.7673 216.049 26.2292C214.678 24.691 212.576 24.3267 211.355 25.4148C210.135 26.5036 210.256 28.6329 211.628 30.171Z" fill="#754933"/>
<path d="M212.243 26.1614C212.796 25.8469 213.547 25.8379 214.25 26.1393C214.601 26.2893 214.857 26.4767 215.035 26.7124C215.271 27.0249 215.346 27.4238 215.231 27.7535C215.128 28.0494 214.901 28.2464 214.699 28.4206C214.554 28.5464 214.417 28.6653 214.341 28.8043C214.225 29.0186 214.265 29.3117 214.434 29.4873C214.603 29.6622 214.894 29.7113 215.112 29.6027C215.241 29.5385 215.396 29.591 215.459 29.7189C215.523 29.8461 215.471 30.0023 215.343 30.0666C215.203 30.1364 215.05 30.1724 214.895 30.1772C214.588 30.1862 214.276 30.0708 214.061 29.8468C213.736 29.5101 213.662 28.9688 213.886 28.5575C214.006 28.3363 214.194 28.1731 214.36 28.0293C214.527 27.8856 214.684 27.7487 214.742 27.5828C214.8 27.4168 214.753 27.1977 214.621 27.0242C214.569 26.9544 214.498 26.8921 214.419 26.832C214.162 26.8375 213.844 26.9267 213.686 27.1085C213.509 27.3145 213.432 27.6076 213.483 27.8731C213.511 28.0134 213.42 28.1489 213.279 28.1766C213.265 28.1794 213.251 28.1807 213.237 28.1814C213.112 28.1856 213 28.0985 212.975 27.9727C212.892 27.5489 213.011 27.1002 213.293 26.7712C213.398 26.6495 213.531 26.5645 213.671 26.4953C213.24 26.393 212.818 26.4283 212.496 26.6115C212.098 26.8375 211.809 27.3989 212.031 27.842C212.095 27.9699 212.043 28.1254 211.915 28.189C211.787 28.2526 211.632 28.2015 211.568 28.0729C211.248 27.4279 211.556 26.552 212.243 26.1614Z" fill="#573322"/>
<path d="M174.486 15.7435C171.875 17.2049 169.65 19.1917 168.245 21.4986C167.879 22.098 167.561 22.725 167.295 23.3727C166.442 25.4453 166.519 27.804 165.381 29.7638C164.347 31.5419 162.473 32.6632 160.925 34.0409C159.377 35.4187 158.047 37.4456 158.645 39.4089C159.218 41.2941 161.37 42.4161 161.934 44.304C162.64 46.6662 160.584 48.9191 158.536 50.3474C156.488 51.7763 154.065 53.2204 153.544 55.6248C153.171 57.3482 153.945 59.167 155.18 60.4577C156.414 61.7483 158.058 62.589 159.714 63.301C170.385 67.8878 183.021 67.8871 193.664 63.2989C196.406 62.1168 199.28 60.3118 199.887 57.4477C200.475 54.6729 198.723 51.9892 197.109 49.6263C195.494 47.2635 193.869 44.4506 194.719 41.7413C195.376 39.6474 197.42 38.0837 197.71 35.9109C198.12 32.8415 195.143 30.5319 194.426 27.721C193.942 25.8241 194.459 23.8338 194.542 21.9203C194.684 18.6408 192.95 15.5078 189.811 14.1736C185.139 12.1875 179.187 13.1131 174.486 15.7435Z" fill="#421F09"/>
<path d="M173.492 259.607L173.456 259.841C173.42 260.19 173.378 260.524 173.314 260.886C173.243 261.184 173.186 261.511 173.122 261.845L137.278 261.836C137.278 261.836 137.222 261.467 137.222 260.884C137.236 260.586 137.258 260.238 137.321 259.833C137.336 259.762 137.343 259.677 137.371 259.599C137.762 257.581 139.233 254.796 144.129 253.902C144.364 253.846 144.613 253.817 144.882 253.782H144.904C145.287 253.725 145.671 253.69 146.083 253.655C146.218 253.648 146.353 253.633 146.488 253.626C156.293 252.861 160.635 249.573 160.635 249.573C160.635 249.573 166.318 250.711 171.647 249.575C171.647 249.575 172.272 250.613 172.826 252.417C172.911 252.723 173.004 253.05 173.089 253.398C173.11 253.462 173.124 253.532 173.145 253.611C173.181 253.746 173.209 253.902 173.238 254.058C173.245 254.101 173.259 254.158 173.259 254.201C173.259 254.237 173.281 254.251 173.281 254.279C173.423 255.018 173.529 255.828 173.572 256.701C173.613 257.61 173.606 258.584 173.492 259.607Z" fill="#FFE3D6"/>
<path d="M157.076 249.862C157.198 249.75 157.359 249.667 157.529 249.675C157.709 249.683 157.841 249.751 157.982 249.862C158.08 249.94 158.179 250.018 158.278 250.095C158.751 250.46 159.232 250.814 159.72 251.156C159.859 251.253 159.968 251.37 160.015 251.539C160.057 251.692 160.038 251.896 159.95 252.032C159.775 252.305 159.368 252.468 159.074 252.262C158.392 251.785 157.727 251.285 157.076 250.768C156.956 250.673 156.889 250.46 156.889 250.315C156.889 250.158 156.958 249.97 157.076 249.862Z" fill="white"/>
<path d="M154.539 251.002C154.779 250.782 155.211 250.731 155.444 251.002C155.913 251.548 156.436 252.044 157.003 252.486C157.095 252.555 157.185 252.623 157.278 252.689C157.417 252.787 157.526 252.903 157.573 253.072C157.615 253.225 157.596 253.429 157.509 253.566C157.334 253.837 156.924 254.003 156.632 253.795C155.862 253.25 155.154 252.624 154.539 251.908C154.426 251.777 154.351 251.632 154.351 251.455C154.351 251.299 154.421 251.111 154.539 251.002Z" fill="white"/>
<path d="M152.206 251.83C152.328 251.718 152.488 251.634 152.658 251.642C152.816 251.649 153.01 251.7 153.111 251.83L154.564 253.698C154.673 253.839 154.751 253.966 154.751 254.151C154.751 254.308 154.681 254.496 154.563 254.604C154.441 254.716 154.281 254.799 154.11 254.791C153.953 254.784 153.759 254.734 153.657 254.603L152.205 252.735C152.096 252.594 152.018 252.467 152.018 252.282C152.018 252.126 152.088 251.938 152.206 251.83Z" fill="white"/>
<path d="M149.619 252.433C149.927 252.27 150.318 252.354 150.498 252.668C150.815 253.211 151.129 253.749 151.445 254.293C151.642 254.582 151.553 255.034 151.236 255.202C150.928 255.365 150.536 255.281 150.356 254.968C150.039 254.424 149.725 253.886 149.409 253.342C149.213 253.053 149.302 252.601 149.619 252.433Z" fill="white"/>
<path d="M173.46 259.846C173.419 260.184 173.378 260.529 173.308 260.881C173.246 261.191 173.191 261.516 173.115 261.847L137.28 261.838C137.28 261.838 137.218 261.473 137.218 260.887C137.231 260.583 137.252 260.231 137.321 259.838L173.46 259.846Z" fill="#EF8C86"/>
<path d="M196.112 259.607L196.147 259.841C196.183 260.19 196.225 260.524 196.29 260.886C196.361 261.184 196.417 261.511 196.482 261.845L232.325 261.836C232.325 261.836 232.382 261.467 232.382 260.884C232.367 260.586 232.346 260.238 232.282 259.833C232.268 259.762 232.261 259.677 232.232 259.599C231.841 257.581 230.37 254.796 225.474 253.902C225.24 253.846 224.991 253.817 224.721 253.782H224.7C224.316 253.725 223.933 253.69 223.521 253.655C223.386 253.648 223.251 253.633 223.116 253.626C213.311 252.861 208.969 249.573 208.969 249.573C208.969 249.573 203.285 250.711 197.956 249.575C197.956 249.575 197.331 250.613 196.778 252.417C196.693 252.723 196.6 253.05 196.515 253.398C196.493 253.462 196.48 253.532 196.458 253.611C196.422 253.746 196.395 253.902 196.366 254.058C196.359 254.101 196.344 254.158 196.344 254.201C196.344 254.237 196.323 254.251 196.323 254.279C196.181 255.018 196.075 255.828 196.032 256.701C195.991 257.61 195.998 258.584 196.112 259.607Z" fill="#FFE3D6"/>
<path d="M212.528 249.862C212.405 249.75 212.246 249.667 212.075 249.675C211.894 249.683 211.762 249.751 211.622 249.862C211.523 249.94 211.424 250.018 211.325 250.095C210.853 250.46 210.372 250.814 209.883 251.156C209.744 251.253 209.635 251.37 209.589 251.539C209.547 251.692 209.565 251.896 209.654 252.032C209.83 252.305 210.237 252.468 210.531 252.262C211.212 251.785 211.877 251.285 212.528 250.768C212.648 250.673 212.716 250.46 212.716 250.315C212.715 250.158 212.645 249.97 212.528 249.862Z" fill="white"/>
<path d="M215.065 251.002C214.826 250.782 214.393 250.731 214.159 251.002C213.69 251.548 213.167 252.044 212.6 252.486C212.509 252.555 212.418 252.623 212.325 252.689C212.186 252.787 212.078 252.903 212.031 253.072C211.988 253.225 212.007 253.429 212.095 253.566C212.27 253.837 212.679 254.003 212.971 253.795C213.742 253.25 214.449 252.624 215.065 251.908C215.177 251.777 215.253 251.632 215.252 251.455C215.253 251.299 215.183 251.111 215.065 251.002Z" fill="white"/>
<path d="M217.398 251.83C217.275 251.718 217.115 251.634 216.945 251.642C216.787 251.649 216.593 251.7 216.492 251.83L215.04 253.698C214.931 253.839 214.852 253.966 214.852 254.151C214.852 254.308 214.922 254.496 215.04 254.604C215.162 254.716 215.323 254.799 215.493 254.791C215.651 254.784 215.845 254.734 215.946 254.603L217.398 252.735C217.508 252.594 217.586 252.467 217.586 252.282C217.585 252.126 217.515 251.938 217.398 251.83Z" fill="white"/>
<path d="M219.985 252.433C219.676 252.27 219.285 252.354 219.105 252.668C218.789 253.211 218.474 253.749 218.158 254.293C217.961 254.582 218.05 255.034 218.367 255.202C218.675 255.365 219.067 255.281 219.246 254.968C219.563 254.424 219.878 253.886 220.194 253.342C220.391 253.053 220.302 252.601 219.985 252.433Z" fill="white"/>
<path d="M196.143 259.846C196.184 260.184 196.226 260.529 196.295 260.881C196.357 261.191 196.413 261.516 196.489 261.847L232.324 261.838C232.324 261.838 232.386 261.473 232.386 260.887C232.372 260.583 232.351 260.231 232.282 259.838L196.143 259.846Z" fill="#EF8C86"/>
<path d="M180.909 116.992L171.643 249.573C166.333 251.521 160.635 249.573 160.635 249.573C160.635 249.573 152.312 154.964 155.823 117.253L180.909 116.992Z" fill="#FFC6C6"/>
<path d="M208.972 249.573C208.972 249.573 203.059 250.985 197.956 249.573C188.799 202.047 175.318 116.918 175.318 116.918L199.226 116.736C204.933 152.024 208.972 249.573 208.972 249.573Z" fill="#FFC6C6"/>
<path d="M209.908 181.309C199.225 189.523 151.263 182.05 151.263 182.05C151.263 182.05 151.297 180.723 151.369 178.442C151.371 178.355 151.374 178.265 151.377 178.176C151.393 177.699 151.409 177.184 151.425 176.633C151.43 176.545 151.432 176.458 151.435 176.368C151.91 161.922 153.384 124.367 156.092 116.727L199.225 116.735L208.911 175.277L208.956 175.556L209.188 176.951L209.233 177.233L209.908 181.309Z" fill="#EF8C86"/>
<path d="M209.233 177.234C206.828 178.489 204.167 179.248 201.504 179.742C197.548 180.475 193.492 180.739 189.479 180.947C185.072 181.179 180.658 181.229 176.251 181.1C171.841 180.97 167.437 180.662 163.051 180.174C159.138 179.741 155.24 179.161 151.369 178.442C151.372 178.355 151.375 178.265 151.377 178.176C151.498 178.199 151.617 178.223 151.739 178.244C156.048 179.036 160.386 179.652 164.742 180.09C169.07 180.525 173.416 180.789 177.767 180.873C182.116 180.96 186.47 180.873 190.811 180.61C194.73 180.372 198.69 180.092 202.535 179.267C204.837 178.774 207.111 178.049 209.189 176.952L209.233 177.234Z" fill="#FFE3D6"/>
<path d="M208.956 175.557C206.622 176.731 204.065 177.45 201.504 177.925C197.548 178.659 193.492 178.919 189.479 179.13C185.072 179.363 180.658 179.412 176.251 179.283C171.841 179.154 167.437 178.845 163.052 178.357C159.157 177.923 155.277 177.347 151.425 176.633C151.43 176.545 151.432 176.458 151.435 176.368C151.535 176.39 151.638 176.408 151.738 176.427C156.047 177.217 160.385 177.835 164.742 178.272C169.069 178.707 173.416 178.968 177.767 179.056C182.115 179.143 186.469 179.056 190.81 178.792C194.729 178.552 198.69 178.274 202.535 177.449C204.734 176.974 206.91 176.291 208.911 175.276L208.956 175.557Z" fill="#FFE3D6"/>
<path d="M208.434 54.117C208.647 52.8748 203.872 47.5096 204.919 46.3966C205.877 45.3783 208.414 47.1321 208.857 48.6564C209.33 46.7146 208.909 38.6512 210.586 38.7908C211.827 38.8938 211.461 44.9891 211.461 44.9891C211.461 44.9891 212.658 37.9668 214.234 38.383C215.81 38.7998 213.726 45.7847 213.726 45.7847C213.726 45.7847 215.845 39.9647 217.043 40.5073C218.223 41.041 215.532 46.8957 215.532 46.8957C215.532 46.8957 218.337 42.6054 218.984 42.9559C219.632 43.3064 218.531 46.3184 217.029 48.3474C217.267 52.7123 214.609 55.5729 214.609 55.5729L208.434 54.117Z" fill="#EBBDA4"/>
<path d="M190.268 54.612C196.039 56.8815 199.876 78.764 199.876 78.764L207.215 53.1782C207.215 53.1782 213.746 53.3898 216.17 55.0344C216.17 55.0344 210.926 80.0478 210.043 83.5237C207.35 94.1158 195.676 93.8538 191.672 87.5844C184.561 76.4489 190.268 54.612 190.268 54.612Z" fill="white"/>
<path d="M155.823 117.253C183.059 123.343 199.226 116.733 199.226 116.733C198.193 113.555 192.12 84.3954 192.12 84.3954C198.224 82.318 198.909 71.6879 192.141 65.2747L190.268 54.612L183.289 52.1157L174.145 52.0528L164.898 55.0344L163.953 100.018L155.823 117.253Z" fill="#FFE3D6"/>
<path d="M172.59 52.554L177.524 92.3102L175.318 137.679H149.356L161.219 99.3386L164.898 55.0344L172.59 52.554Z" fill="white"/>
<path d="M172.59 52.554L167.193 60.8932L171.71 64.6186L169.091 70.241L176.995 88.0407L172.59 52.554Z" fill="#BEFCF3"/>
<path d="M184.515 52.554L187.435 91.818L192.538 137.678H204.486L192.706 84.5786C198.751 80.8532 199.384 73.2627 192.706 64.9691L190.268 54.6113L184.515 52.554Z" fill="white"/>
<path d="M195.557 69.2573C194.758 67.7772 193.775 66.4057 192.715 65.1026C192.456 62.598 192.197 60.0934 191.938 57.5888C191.92 57.4215 191.656 57.4201 191.674 57.5888C191.936 60.1197 192.198 62.6512 192.46 65.1821C192.465 65.2305 192.491 65.2637 192.525 65.2837C194.367 67.5477 195.992 70.0689 196.76 72.9115C197.495 75.636 197.405 78.6259 195.999 81.1249C195.303 82.3637 194.314 83.4332 193.087 84.1584C192.942 84.2448 193.074 84.4729 193.221 84.3858C195.492 83.044 196.941 80.5905 197.348 78.0182C197.828 74.991 196.994 71.9181 195.557 69.2573Z" fill="#BEFCF3"/>
<path d="M187.005 64.7417L190.166 60.4791L184.515 52.554L187.17 88.2515L190.703 69.9596L187.005 64.7417Z" fill="#BEFCF3"/>
<path d="M170.286 100.494L195.355 101.545L196.822 66.5713L171.753 65.5199L170.286 100.494Z" fill="#26645F"/>
<path d="M180.847 64.9566C181.348 64.1292 182.746 63.5685 184.387 63.6376C186.029 63.7068 187.375 64.3829 187.806 65.2491L189.961 65.3396L189.848 68.0447L178.578 67.5719L178.691 64.8668L180.847 64.9566Z" fill="#154340"/>
<path d="M192.94 74.0065C195.197 73.3595 196.627 71.2102 196.627 71.2102C198.984 71.9686 201.281 82.8815 196.09 84.0111C193.896 84.457 192.337 83.877 191.368 84.2973L188.729 77.1437C189.052 75.4361 190.617 73.4666 192.94 74.0065Z" fill="#EBA37D"/>
<path d="M164.898 55.0344C160.587 56.5449 155.275 82.4397 154.352 87.3894C153.306 92.989 156.673 98.0611 161.566 98.106C166.459 98.1509 192.12 84.3947 192.12 84.3947C192.12 84.3947 191.044 79.4595 188.396 76.4516L166.369 84.2965L169.152 72.6737L164.898 55.0344Z" fill="white"/>
<path d="M175.862 80.9375C172.77 82.1839 169.615 83.2741 166.412 84.2018C167.15 81.326 167.887 78.4502 168.625 75.5744C168.835 74.7545 169.045 73.9353 169.255 73.1154C169.298 72.9509 169.043 72.881 169.001 73.0449C168.256 75.9504 167.511 78.8567 166.765 81.7622C166.555 82.5821 166.345 83.4013 166.135 84.2212C166.129 84.2433 166.129 84.2633 166.134 84.282C165.261 84.5316 164.385 84.7708 163.507 84.9961C163.342 85.0383 163.412 85.2927 163.576 85.2505C166.856 84.4071 170.092 83.3971 173.268 82.2219C174.161 81.8915 175.049 81.5479 175.932 81.1919C176.088 81.129 176.02 80.8739 175.862 80.9375Z" fill="#BEFCF3"/>
<path d="M176.113 92.2265C174.163 93.1141 172.213 94.0025 170.263 94.8901C168.404 95.7369 166.556 96.664 164.614 97.3104C163.559 97.6615 162.468 97.9145 161.355 97.9788C161.186 97.9885 161.184 98.2526 161.354 98.2422C163.364 98.1261 165.263 97.4196 167.089 96.6177C169.038 95.7618 170.967 94.859 172.903 93.9769C174.017 93.4695 175.131 92.9621 176.245 92.4546C176.399 92.3848 176.266 92.1567 176.113 92.2265Z" fill="#BEFCF3"/>
<path d="M193.232 35.4435C193.228 35.5071 193.219 35.57 193.216 35.6336C193.207 35.709 193.203 35.7719 193.195 35.8472C192.813 39.413 191.532 41.6715 189.748 43.3569C188.793 44.2652 187.903 44.9351 187.12 45.5324C186.869 45.7253 186.634 45.9064 186.405 46.0868C186.226 46.2258 186.059 46.3696 185.887 46.5196C184.141 48.0024 183.16 49.6298 183.41 54.2871C182.039 58.3478 176.002 59.2271 173.803 54.8069C173.564 49.1666 172.235 44.3586 171.123 41.2726C170.841 40.4665 170.569 39.7815 170.336 39.2319C169.896 38.179 169.588 37.6038 169.588 37.6038C169.588 37.6038 169.185 25.1991 170.792 21.8138C174.709 13.644 190.099 15.5354 191.624 21.7958C193.086 27.777 193.521 32.1515 193.232 35.4435Z" fill="#EBA37D"/>
<path d="M193.464 28.8333C191.873 25.6602 189.481 22.8923 186.573 20.8571C183.939 24.306 180.233 26.8804 176.03 27.963C175.545 31.3517 173.257 34.4847 170.07 35.7353C168.97 35.6675 168.007 34.6762 167.602 33.6524C167.196 32.6286 167.191 31.4969 167.195 30.3957C167.201 28.5713 167.218 26.7255 167.67 24.9579C168.439 21.9528 170.473 19.3341 173.078 17.6501C175.684 15.9668 178.826 15.1911 181.927 15.2368C184.108 15.2686 186.306 15.7041 188.242 16.7092C190.178 17.7144 191.837 19.3161 192.715 21.3126C193.765 23.699 193.604 26.2306 193.464 28.8333Z" fill="#421F09"/>
<path d="M166.265 38.0671C167.656 39.5554 169.741 39.8672 170.923 38.7632C172.104 37.6592 171.935 35.5576 170.544 34.0686C169.153 32.5795 167.067 32.2677 165.886 33.3717C164.704 34.4764 164.874 36.578 166.265 38.0671Z" fill="#EBA37D"/>
<path d="M166.78 34.0893C167.32 33.7658 168.062 33.7395 168.764 34.0216C169.114 34.1612 169.371 34.3409 169.553 34.5704C169.794 34.8739 169.877 35.2666 169.77 35.595C169.676 35.8895 169.455 36.0899 169.261 36.2662C169.12 36.3941 168.987 36.5144 168.915 36.654C168.806 36.8683 168.852 37.1573 169.023 37.3267C169.194 37.4953 169.483 37.5375 169.696 37.4248C169.821 37.3585 169.976 37.4069 170.042 37.5313C170.108 37.6557 170.061 37.8113 169.935 37.8769C169.799 37.9495 169.648 37.9882 169.496 37.9965C169.192 38.0124 168.882 37.906 168.663 37.6896C168.334 37.3647 168.249 36.831 168.46 36.4197C168.574 36.1978 168.756 36.0326 168.917 35.8867C169.078 35.7408 169.23 35.6026 169.284 35.4366C169.338 35.2707 169.286 35.0557 169.152 34.8871C169.098 34.8193 169.026 34.7592 168.948 34.7018C168.695 34.7135 168.381 34.8083 168.23 34.9921C168.06 35.1995 167.99 35.4906 168.048 35.7526C168.078 35.8908 167.991 36.027 167.853 36.0574C167.839 36.0609 167.825 36.0623 167.811 36.063C167.689 36.0699 167.575 35.9862 167.548 35.8625C167.456 35.4456 167.563 34.9991 167.835 34.6679C167.936 34.5449 168.066 34.4585 168.203 34.3866C167.774 34.2953 167.359 34.3402 167.044 34.5283C166.656 34.7606 166.384 35.3219 166.613 35.7553C166.679 35.8805 166.631 36.0353 166.507 36.101C166.381 36.1667 166.227 36.1197 166.161 35.9945C165.826 35.3634 166.111 34.4916 166.78 34.0893Z" fill="#C16B5B"/>
<path d="M186.202 34.4674C186.422 34.3554 186.656 34.2877 186.902 34.2732C187.122 34.26 187.364 34.2884 187.547 34.4211C187.743 34.5635 187.841 34.784 187.861 35.0212C187.88 35.2479 187.806 35.4719 187.721 35.6793C187.676 35.7906 187.569 35.8839 187.44 35.8438C187.333 35.8106 187.227 35.682 187.275 35.5624C187.337 35.4111 187.405 35.2465 187.403 35.0806C187.402 34.9956 187.379 34.9085 187.329 34.84C187.331 34.8442 187.334 34.849 187.337 34.8532C187.29 34.7799 187.2 34.7529 187.12 34.7391C187.114 34.7377 187.107 34.737 187.098 34.7357C187.081 34.735 187.064 34.7329 187.046 34.7322C187.001 34.7301 186.955 34.7308 186.908 34.7336C186.885 34.735 186.861 34.7377 186.838 34.7398C186.826 34.7412 186.825 34.7405 186.821 34.7412C186.818 34.7419 186.817 34.7426 186.807 34.7439C186.664 34.7702 186.541 34.8283 186.406 34.8767C186.303 34.9133 186.178 34.8829 186.124 34.7834C186.068 34.6803 186.088 34.5262 186.202 34.4674Z" fill="#C16B5B"/>
<path d="M191.293 28.6791C190.083 28.0252 188.616 27.9629 187.382 28.6017C187.08 28.7579 186.912 29.1589 187.083 29.4721C187.305 29.8792 187.703 29.8786 188.076 29.7099C188.408 29.5592 188.768 29.4665 189.132 29.4375C189.13 29.4174 189.1 29.452 189.12 29.4513C189.586 29.4257 190.047 29.5205 190.473 29.7119C190.498 29.723 190.523 29.7354 190.563 29.7541C190.861 29.9117 191.262 29.9014 191.461 29.5847C191.631 29.3124 191.613 28.852 191.293 28.6791Z" fill="black"/>
<path d="M183.448 28.7344C182.166 28.2346 180.702 28.3549 179.556 29.1416C179.276 29.3345 179.159 29.7527 179.368 30.0424C179.57 30.323 179.969 30.4371 180.269 30.2311C180.384 30.1523 180.504 30.0832 180.626 30.0147C180.638 30.0085 180.635 30.0099 180.643 30.0057C180.665 29.9961 180.687 29.9857 180.709 29.976C180.757 29.9553 180.805 29.9359 180.854 29.9179C180.984 29.8688 181.118 29.8281 181.253 29.7949C181.287 29.7866 181.504 29.7216 181.336 29.7741C181.392 29.7569 181.459 29.7555 181.517 29.7486C181.647 29.7334 181.777 29.7257 181.908 29.7251C181.978 29.7244 182.047 29.7285 182.117 29.7299C182.124 29.7299 182.126 29.7299 182.132 29.7299C182.142 29.7313 182.156 29.7334 182.176 29.7354C182.306 29.7513 182.434 29.7741 182.561 29.8046C182.628 29.8212 182.695 29.8391 182.762 29.8599C182.788 29.8682 182.814 29.8765 182.841 29.8854C182.845 29.8875 182.843 29.8861 182.849 29.8889C182.851 29.8896 182.853 29.8896 182.854 29.8903C182.856 29.891 182.859 29.8917 182.861 29.8924C182.858 29.8917 182.859 29.8917 182.856 29.891C183.172 30.0106 183.569 29.9504 183.726 29.6117C183.861 29.3206 183.786 28.8658 183.448 28.7344Z" fill="black"/>
<path d="M183.864 37.6218C184.693 38.2523 185.744 38.5426 186.778 38.4472C187.064 38.421 187.089 38.8662 186.802 38.8924C185.647 38.9989 184.488 38.6553 183.566 37.9543C183.338 37.7801 183.637 37.449 183.864 37.6218Z" fill="#8E4136"/>
<path d="M180.91 33.1477C180.891 33.7284 181.345 34.2151 181.927 34.2344C182.507 34.2538 182.994 33.7982 183.014 33.2175C183.033 32.6368 182.578 32.1501 181.997 32.1308C181.416 32.1114 180.929 32.5663 180.91 33.1477Z" fill="black"/>
<path d="M182.035 32.8484C182.029 33.0177 182.162 33.1595 182.331 33.165C182.501 33.1705 182.642 33.0378 182.648 32.8684C182.653 32.6991 182.521 32.5573 182.351 32.5518C182.183 32.5463 182.041 32.679 182.035 32.8484Z" fill="white"/>
<path d="M188.588 32.9355C188.569 33.5162 189.024 34.0028 189.605 34.0222C190.186 34.0416 190.672 33.586 190.692 33.0053C190.711 32.4246 190.256 31.9379 189.675 31.9186C189.093 31.8992 188.607 32.3548 188.588 32.9355Z" fill="black"/>
<path d="M189.713 32.6362C189.707 32.8055 189.84 32.9472 190.01 32.9528C190.179 32.9583 190.321 32.8256 190.326 32.6562C190.332 32.4868 190.199 32.3451 190.03 32.3396C189.86 32.3341 189.718 32.4668 189.713 32.6362Z" fill="white"/>
</svg>
